<svg width="2908" height="712" viewBox="0 0 2908 712" fill="none" xmlns="http://www.w3.org/2000/svg">
<path d="M687.913 355.585C687.913 539.128 539.128 687.913 355.587 687.913C172.045 687.913 23.2584 539.128 23.2584 355.585C23.2584 172.047 172.045 23.2587 355.587 23.2587C539.128 23.2587 687.913 172.047 687.913 355.585Z" fill="#B92038"/>
<path d="M355.585 46.5147C185.165 46.5147 46.5156 185.165 46.5156 355.587C46.5156 526.007 185.165 664.656 355.585 664.656C526.005 664.656 664.659 526.007 664.659 355.587C664.659 185.165 526.005 46.5147 355.585 46.5147ZM355.585 711.172C159.515 711.172 0 551.659 0 355.587C0 159.515 159.515 3.42511e-05 355.585 3.42511e-05C551.656 3.42511e-05 711.171 159.515 711.171 355.587C711.171 551.659 551.656 711.172 355.585 711.172Z" fill="#333333"/>
<path d="M136.129 494.025L139.767 500.383L192.208 469.788L189.28 464.676L136.129 494.025ZM241.251 420.68L187.356 450.193L193.087 460.211L246.879 430.508L241.251 420.68ZM305.359 385.573L246.096 418.028L251.712 427.84L310.859 395.181L305.359 385.573ZM252.74 429.636L254.816 433.261L313.167 399.219L311.885 396.979L252.74 429.636ZM492.408 257.151C492.612 257.669 492.768 258.205 492.893 258.747C492.78 258.204 492.62 257.669 492.408 257.151ZM110.77 460.832L61.9787 487.405L67.3094 497.392L116.367 470.608L110.77 460.832ZM182.511 452.845L129.253 482.013L135.1 492.228L188.252 462.88L182.511 452.845ZM117.395 472.407L68.2845 499.221L73.9922 509.912L123.381 482.867L117.395 472.407ZM124.41 484.665L74.9683 511.74L80.6126 522.315L130.266 494.896L124.41 484.665ZM81.5891 524.14L85.7345 531.907L134.999 503.165L131.295 496.695L81.5891 524.14ZM447.208 268.665C447.092 268.123 446.929 267.587 446.721 267.068C446.924 267.587 447.077 268.123 447.208 268.665ZM103.638 448.368L55.1141 474.549L61.0027 485.581L109.741 459.033L103.638 448.368ZM636.795 264.404C636.799 262.457 636.595 260.511 636.503 258.585C636.211 256.671 635.789 254.777 635.401 252.907C636.328 260.539 635.463 268.244 632.884 275.279C630.283 282.303 626.136 288.715 620.737 293.843C615.384 299.027 608.797 302.871 601.685 305.236C594.553 307.597 586.892 308.315 579.213 307.949C581.107 308.243 583.017 308.512 584.941 308.748C586.859 309.021 588.796 308.867 590.741 308.944C592.7 309.047 594.611 308.636 596.553 308.428C598.507 308.269 600.392 307.759 602.288 307.264C609.875 305.285 616.941 301.273 622.648 295.833C628.32 290.368 632.661 283.479 634.899 275.947C635.556 274.1 635.767 272.121 636.216 270.225C636.571 268.307 636.603 266.335 636.795 264.404ZM538.413 253.761C538.857 252.183 538.929 250.476 538.587 248.844C538.896 250.148 539.007 251.501 538.913 252.859C539.977 250.484 540.132 247.707 539.107 245.101C537.553 241.169 533.773 238.763 529.78 238.763C528.896 238.763 528.008 238.925 527.128 239.169C528.935 239.312 530.675 239.787 532.195 240.609C534.94 242.048 536.999 244.471 538.096 247.233C537.021 244.431 534.624 242.243 531.887 241.319C529.125 240.388 526.121 240.772 523.832 242.107C522.348 242.961 521.236 244.127 520.411 245.423C519.62 247.625 519.556 250.1 520.477 252.444C522.504 257.581 528.343 260.109 533.461 258.085C535.649 257.223 537.321 255.653 538.413 253.761ZM447.039 273.603C447.481 272.023 447.556 270.313 447.212 268.68C447.52 269.983 447.632 271.344 447.537 272.701L447.596 272.596C448.664 270.143 448.709 267.424 447.728 264.937C446.747 262.448 444.856 260.492 442.405 259.427C441.127 258.871 439.773 258.589 438.421 258.589C437.519 258.589 436.625 258.759 435.747 259.004C437.555 259.147 439.299 259.621 440.819 260.443C443.564 261.881 445.623 264.307 446.721 267.068C445.648 264.264 443.248 262.077 440.509 261.155C437.751 260.223 434.745 260.607 432.456 261.94C430.968 262.8 429.852 263.969 429.025 265.269C428.212 267.549 428.207 270.005 429.105 272.277C430.085 274.765 431.975 276.72 434.427 277.787C436.879 278.853 439.599 278.903 442.087 277.917C444.212 277.081 445.909 275.552 447.039 273.603ZM401.908 282.513C402.973 280.06 403.02 277.34 402.041 274.855V274.852C401.059 272.364 399.169 270.408 396.717 269.344C395.44 268.788 394.087 268.508 392.731 268.508C391.833 268.508 390.94 268.675 390.061 268.921C391.867 269.063 393.611 269.539 395.129 270.36C397.877 271.797 399.935 274.221 401.032 276.985C399.957 274.181 397.561 271.993 394.821 271.072C392.065 270.139 389.059 270.523 386.769 271.857C385.28 272.716 384.167 273.884 383.337 275.184C382.527 277.463 382.52 279.921 383.415 282.193C384.396 284.684 386.289 286.639 388.737 287.705C391.191 288.771 393.915 288.815 396.396 287.836C398.521 286.999 400.224 285.469 401.347 283.521C401.795 281.94 401.867 280.233 401.523 278.601C401.833 279.904 401.944 281.261 401.851 282.62L401.908 282.513ZM566.097 235.507C565.308 237.711 565.241 240.184 566.167 242.528C568.189 247.66 574.016 250.199 579.151 248.167C581.333 247.307 583.009 245.735 584.1 243.844C584.548 242.265 584.619 240.56 584.273 238.928C584.581 240.228 584.695 241.585 584.6 242.941C585.665 240.568 585.82 237.789 584.792 235.184C583.241 231.252 579.46 228.845 575.468 228.845C574.583 228.845 573.697 229.009 572.815 229.253C574.623 229.395 576.363 229.869 577.88 230.693C580.628 232.131 582.687 234.555 583.785 237.317C582.709 234.513 580.315 232.327 577.571 231.404C574.815 230.471 571.808 230.856 569.517 232.187C568.037 233.045 566.925 234.209 566.097 235.507ZM532.679 295.611C530.841 298.108 528.409 300.105 526.219 302.293L519.38 308.621L505.511 321.065C496.219 329.311 486.791 337.403 477.389 345.511C467.965 353.601 458.369 361.483 448.741 369.312C439.371 376.919 429.86 384.36 420.029 391.323C418.324 389.491 416.425 388.105 414.499 386.72C412.257 385.173 409.937 383.776 407.553 382.492C402.785 379.927 397.781 377.829 392.621 376.24C387.459 374.665 382.107 373.685 376.725 373.42C371.351 373.128 365.933 373.636 360.759 375.008C366.011 373.987 371.38 373.745 376.667 374.263C381.959 374.737 387.137 376.031 392.164 377.667C397.177 379.368 402.023 381.561 406.604 384.192C411.096 386.833 415.725 389.872 418.943 393.597L419.675 394.448L420.547 393.848C430.817 386.764 440.697 379.172 450.437 371.417C460.167 363.649 469.607 355.533 479.001 347.379C488.408 339.236 497.579 330.827 506.643 322.301C511.18 318.049 515.669 313.745 520.06 309.335L526.605 302.681C528.711 300.404 530.983 298.223 532.679 295.611ZM592.44 315.844C576.027 316.873 542.184 300.039 542.184 300.039C523.153 311.995 448.58 390.733 417.44 401.151C411.512 394.584 374.168 360.085 321.272 393.428L320.536 392.203L569.74 254.601L572.845 252.888L571.841 251.075L566.973 253.761L319.469 390.427L313.777 380.963L526.108 264.689L534.949 259.844L534.579 259.161L533.96 258.028L528.615 260.953L522.696 264.195L312.709 379.187L306.636 369.084L479.705 274.589L491.227 268.3L490.74 267.407L490.259 266.528C491.255 265.749 492.085 264.795 492.724 263.687C493.169 262.105 493.244 260.396 492.897 258.764C493.208 260.068 493.323 261.427 493.225 262.784L493.284 262.68C494.348 260.227 494.395 257.507 493.416 255.02V255.017C492.435 252.533 490.545 250.576 488.093 249.509C486.815 248.953 485.461 248.675 484.107 248.675C483.207 248.675 482.315 248.841 481.436 249.087C483.241 249.229 484.988 249.704 486.504 250.527C489.253 251.965 491.312 254.389 492.408 257.151C491.333 254.349 488.937 252.16 486.196 251.237C483.44 250.305 480.433 250.691 478.145 252.024C476.656 252.883 475.539 254.052 474.711 255.355C473.9 257.631 473.893 260.088 474.789 262.36C476.729 267.275 482.145 269.757 487.104 268.191L482.271 270.831L476.488 273.987L305.567 367.308L299.873 357.836L434.493 284.517L445.751 278.385L447.469 277.449L446.796 276.217L446.477 275.632L446.063 275.857L437.036 280.776L431.14 283.985L298.807 356.06L292.907 346.247L388.932 294.439L399.924 288.505L401.785 287.501L401.929 287.424L401.897 287.371L401.165 286.009L400.944 285.603L400.228 285.991L391.496 290.7L385.532 293.921L291.839 344.471L285.781 334.401L341.992 304.325L353.8 298.007L353.464 297.384L352.971 296.457C354.065 295.651 354.973 294.631 355.663 293.44C356.107 291.856 356.181 290.149 355.833 288.515C356.144 289.819 356.259 291.179 356.161 292.539L356.223 292.429C357.287 289.979 357.335 287.257 356.355 284.771V284.768C355.372 282.284 353.483 280.327 351.032 279.26C349.749 278.704 348.397 278.425 347.043 278.425C346.144 278.425 345.251 278.592 344.372 278.837C346.179 278.98 347.924 279.455 349.443 280.277C352.191 281.716 354.248 284.14 355.344 286.901C354.269 284.1 351.873 281.911 349.132 280.988C346.375 280.056 343.371 280.441 341.083 281.775C339.595 282.633 338.481 283.8 337.651 285.101C336.837 287.381 336.833 289.839 337.728 292.111C338.712 294.6 340.601 296.556 343.052 297.621C344.937 298.44 346.975 298.644 348.945 298.257L344.663 300.549L339.007 303.575L284.716 332.623L280.336 325.343C280.336 325.343 292.48 319.445 291.741 313.801C290.999 308.159 292.152 282.845 299.48 278.843C301.224 277.892 318.145 273.816 343.049 268.133L340.281 261.243C339.408 261.341 338.547 261.391 337.693 261.391C330.108 261.391 323.716 257.573 322.395 251.676C321.467 247.528 323.26 243.245 326.788 239.943C326.224 240.733 325.732 241.584 325.357 242.504C324.563 244.447 324.275 246.691 324.732 248.823L324.82 249.084C325.353 251.101 326.509 252.912 327.993 254.272C329.553 255.696 331.421 256.648 333.339 257.269C337.219 258.459 341.293 258.277 345.045 257.309C345.356 257.224 345.652 257.096 345.957 257C349.352 255.921 352.519 254.144 354.951 251.604C355.984 250.547 356.881 249.305 357.543 247.961C357.143 250.188 356.039 252.384 354.273 254.383C352.108 256.832 349.123 258.737 345.717 259.956L348.336 266.481L345.775 267.512C358.425 264.633 372.981 261.371 388.576 257.908L385.828 251.06C384.901 251.168 383.98 251.233 383.069 251.233C380.272 251.233 377.587 250.717 375.22 249.695C371.251 247.988 368.627 245.079 367.831 241.512C367.029 237.941 368.164 234.195 371.025 230.959C371.361 230.58 371.769 230.256 372.141 229.904C371.613 230.661 371.147 231.465 370.791 232.34C369.997 234.284 369.711 236.527 370.168 238.659L370.252 238.917C370.785 240.933 371.944 242.748 373.425 244.108C374.987 245.532 376.857 246.484 378.775 247.104C382.652 248.295 386.728 248.113 390.48 247.145C390.788 247.061 391.08 246.933 391.385 246.837C394.78 245.761 397.951 243.981 400.387 241.44C401.417 240.383 402.315 239.14 402.977 237.799C402.576 240.025 401.473 242.219 399.705 244.219C397.563 246.643 394.621 248.54 391.253 249.76L393.929 256.423L392.272 257.089C405.833 254.084 420.113 250.939 434.549 247.775L431.752 240.813C430.663 240.965 429.575 241.069 428.501 241.069C425.708 241.069 423.02 240.553 420.652 239.529C416.685 237.823 414.061 234.915 413.264 231.347C412.463 227.779 413.601 224.029 416.46 220.793C416.795 220.416 417.203 220.092 417.575 219.739C417.048 220.495 416.583 221.301 416.227 222.176C415.433 224.12 415.144 226.361 415.603 228.493L415.685 228.749C416.22 230.767 417.377 232.581 418.863 233.943C420.419 235.367 422.291 236.319 424.208 236.94C428.085 238.131 432.163 237.948 435.915 236.98C436.221 236.897 436.512 236.769 436.816 236.676C440.216 235.599 443.387 233.819 445.82 231.275C446.856 230.217 447.751 228.972 448.415 227.627C448.013 229.856 446.909 232.053 445.141 234.055C443.096 236.367 440.328 238.217 437.152 239.44L439.781 245.987L436.261 247.4C450.621 244.255 465.108 241.096 479.185 238.037L476.267 230.772C475.503 230.845 474.743 230.897 473.999 230.897C466.412 230.897 460.019 227.08 458.7 221.183C457.9 217.615 459.033 213.867 461.893 210.629C462.227 210.251 462.639 209.925 463.011 209.573C462.484 210.329 462.016 211.136 461.664 212.012C460.867 213.956 460.579 216.196 461.037 218.329L461.123 218.591C461.66 220.605 462.815 222.419 464.297 223.777C465.855 225.204 467.725 226.155 469.644 226.776C473.523 227.965 477.596 227.784 481.349 226.817C481.793 226.695 482.221 226.52 482.656 226.372C485.897 225.283 488.919 223.553 491.255 221.111C492.271 220.073 493.155 218.86 493.813 217.545C492.829 222.639 488.192 227.351 481.735 229.575L484.479 236.404L481.86 237.455C496.911 234.187 511.429 231.045 524.763 228.171L521.725 220.609C520.936 220.689 520.151 220.743 519.375 220.743C516.576 220.743 513.891 220.223 511.523 219.203C507.556 217.495 504.933 214.587 504.135 211.019C503.333 207.448 504.469 203.7 507.332 200.465C507.664 200.087 508.073 199.763 508.444 199.411C507.919 200.167 507.451 200.971 507.097 201.847C506.301 203.791 506.016 206.032 506.475 208.165L506.557 208.425C507.093 210.441 508.249 212.253 509.729 213.613C511.288 215.04 513.163 215.991 515.077 216.611C518.957 217.801 523.033 217.62 526.783 216.653C527.225 216.532 527.652 216.357 528.084 216.209C531.331 215.12 534.353 213.389 536.688 210.945C537.703 209.911 538.588 208.699 539.245 207.385C538.261 212.472 533.633 217.176 527.191 219.403L530.013 226.432L526.747 227.744C562.976 219.931 589.944 214.191 593.64 213.472C606.043 211.055 641.688 226.188 643.047 262.26C644.403 298.331 608.855 314.817 592.44 315.844ZM538.584 248.829C538.467 248.287 538.305 247.753 538.096 247.233C538.297 247.751 538.452 248.287 538.584 248.829ZM584.271 238.912C584.156 238.369 583.993 237.836 583.785 237.317C583.987 237.836 584.141 238.369 584.271 238.912ZM355.344 286.901C355.548 287.421 355.703 287.957 355.833 288.5C355.717 287.956 355.555 287.421 355.344 286.901ZM401.519 278.581C401.403 278.037 401.243 277.504 401.032 276.985C401.237 277.504 401.391 278.037 401.519 278.581ZM194.115 462.007L196.977 467.005L250.045 436.048L247.904 432.307L194.115 462.007ZM233.291 406.771L227.763 397.111L173.797 426.504L179.357 436.219L233.291 406.771ZM166.805 414.285L172.768 424.707L226.735 395.316L220.892 385.104L166.805 414.285ZM159.695 401.867L165.775 412.488L219.861 383.307L213.889 372.869L159.695 401.867ZM334.092 255.117C337.384 256.404 341.14 256.639 344.756 256.019C346.901 255.619 349.011 254.887 350.973 253.86C352.299 253.165 353.569 252.357 354.692 251.339C355.88 250.275 356.888 248.951 357.604 247.492C357.769 246.269 357.739 245.039 357.467 243.828C356.669 240.26 354.048 237.355 350.077 235.644C346.331 234.028 341.785 233.685 337.257 234.655C334.699 235.7 332.36 237.209 330.519 239.145C329.679 240.013 328.96 240.993 328.397 242.029C327.329 243.993 326.845 246.169 327.323 248.244C328.011 251.423 330.817 253.888 334.092 255.117ZM96.4042 435.729L48.1689 461.54L54.1365 472.721L102.607 446.568L96.4042 435.729ZM556.955 209.039C559.325 210.057 562.009 210.576 564.809 210.576C565.9 210.576 567.008 210.469 568.121 210.309L571.22 218.017L576.343 215.96L573.516 208.928C579.497 206.588 583.74 202.075 584.679 197.224C584.019 198.536 583.136 199.747 582.124 200.781C579.783 203.227 576.763 204.957 573.511 206.047C573.081 206.193 572.659 206.367 572.221 206.489C568.465 207.455 564.389 207.637 560.513 206.447C558.599 205.827 556.723 204.876 555.167 203.449C553.683 202.089 552.528 200.276 551.992 198.26L551.908 198C551.449 195.868 551.737 193.627 552.531 191.683C552.907 190.76 553.399 189.911 553.96 189.119C550.435 192.421 548.639 196.704 549.568 200.853C550.368 204.423 552.989 207.328 556.955 209.039ZM561.263 204.296C564.555 205.581 568.315 205.816 571.931 205.197C574.161 204.779 576.349 204.007 578.371 202.916C579.615 202.243 580.807 201.477 581.864 200.519C583.043 199.464 584.043 198.152 584.759 196.709C584.937 195.481 584.916 194.24 584.64 193.008C583.047 185.879 574.029 181.803 564.48 183.813C561.903 184.861 559.547 186.373 557.693 188.324C556.852 189.188 556.136 190.169 555.572 191.204C554.503 193.168 554.017 195.347 554.497 197.421C555.184 200.6 557.993 203.067 561.263 204.296ZM379.527 244.953C382.816 246.239 386.575 246.473 390.192 245.855C392.336 245.455 394.447 244.723 396.403 243.696C397.731 243 399.005 242.195 400.125 241.175C401.317 240.112 402.323 238.785 403.039 237.328C403.204 236.104 403.171 234.873 402.901 233.664C402.103 230.096 399.479 227.189 395.512 225.48C391.759 223.86 387.204 223.523 382.684 224.492C380.127 225.537 377.793 227.045 375.953 228.981C375.065 229.897 374.303 230.94 373.727 232.045C372.728 233.959 372.296 236.069 372.756 238.08C373.447 241.257 376.251 243.723 379.527 244.953ZM167.919 427.349L161.944 416.909L108.497 445.745L114.591 456.393L167.919 427.349ZM424.959 234.789C428.252 236.075 432.009 236.309 435.627 235.691C437.772 235.289 439.884 234.557 441.843 233.531C443.168 232.836 444.44 232.028 445.561 231.011C446.751 229.948 447.757 228.62 448.475 227.16C448.639 225.939 448.608 224.709 448.336 223.5C446.74 216.371 437.723 212.288 428.172 214.308C425.595 215.356 423.243 216.867 421.389 218.817C420.499 219.733 419.739 220.775 419.165 221.879C418.165 223.793 417.728 225.905 418.192 227.915C418.88 231.093 421.687 233.559 424.959 234.789ZM515.829 214.46C519.12 215.747 522.881 215.98 526.499 215.361C528.727 214.944 530.916 214.171 532.939 213.079C534.18 212.405 535.373 211.643 536.432 210.684C537.609 209.628 538.608 208.315 539.325 206.872C539.503 205.644 539.481 204.403 539.208 203.171C537.611 196.041 528.611 191.957 519.041 193.98C516.464 195.028 514.111 196.539 512.26 198.488C511.368 199.405 510.607 200.447 510.031 201.551C509.033 203.465 508.599 205.576 509.06 207.585C509.749 210.764 512.556 213.231 515.829 214.46ZM470.395 224.624C473.688 225.911 477.445 226.144 481.06 225.527C483.295 225.109 485.484 224.333 487.505 223.24C488.748 222.571 489.939 221.807 490.999 220.848C492.173 219.791 493.173 218.476 493.889 217.035C494.067 215.809 494.048 214.565 493.773 213.335C492.177 206.204 483.171 202.125 473.607 204.144C471.028 205.192 468.676 206.703 466.825 208.652C465.935 209.569 465.173 210.609 464.601 211.713C463.601 213.628 463.163 215.739 463.625 217.751C464.313 220.929 467.121 223.393 470.395 224.624ZM101.275 433.125L107.468 443.944L160.915 415.111L154.827 404.471L101.275 433.125ZM232.612 394.471L238.139 404.123L297.444 371.741L291.955 362.149L232.612 394.471ZM304.331 383.776L298.472 373.541L239.167 405.92L245.065 416.228L304.331 383.776ZM153.797 402.673L149.357 394.915L95.9146 423.759L100.247 431.327L153.797 402.673ZM218.76 370.263L224.723 380.681L284.199 348.593L278.349 338.379L218.76 370.263ZM212.861 371.072L208.301 363.103L154.219 392.291L158.667 400.068L212.861 371.072ZM225.752 382.48L231.585 392.671L290.927 360.352L285.225 350.391L225.752 382.48ZM91.0553 426.383L43.1902 452.217L47.1949 459.715L95.3771 433.935L91.0553 426.383ZM277.323 336.58L272.632 328.381L213.16 360.48L217.731 368.465L277.323 336.58ZM240.223 418.884L234.32 408.567L180.384 438.015L186.327 448.396L240.223 418.884ZM174.509 438.864L168.947 429.145L145.16 442.1C147.768 441.684 150.408 443.107 151.416 445.667C152.581 448.621 151.129 451.96 148.173 453.125C145.219 454.293 141.877 452.84 140.712 449.884C139.881 447.777 140.399 445.487 141.825 443.916L115.619 458.189L121.214 467.961L174.509 438.864ZM128.224 480.213L122.242 469.76L175.537 440.663L181.483 451.048L128.224 480.213Z" fill="#333333"/>
<path d="M636.5 258.585C636.211 256.671 635.789 254.777 635.401 252.907C636.328 260.539 635.463 268.244 632.881 275.279C630.28 282.303 626.137 288.715 620.735 293.843C615.384 299.027 608.795 302.871 601.685 305.236C594.552 307.597 586.892 308.315 579.213 307.949C581.109 308.243 583.019 308.512 584.941 308.748C586.857 309.021 588.799 308.867 590.741 308.944C592.699 309.047 594.611 308.636 596.551 308.428C598.508 308.269 600.392 307.759 602.288 307.264C609.873 305.285 616.941 301.273 622.647 295.833C628.32 290.368 632.66 283.479 634.896 275.947C635.556 274.1 635.769 272.121 636.219 270.225C636.571 268.307 636.604 266.335 636.795 264.404C636.799 262.457 636.593 260.511 636.5 258.585ZM526.219 302.293L519.38 308.621L505.511 321.065C496.219 329.311 486.793 337.403 477.389 345.511C467.965 353.601 458.369 361.483 448.739 369.312C439.371 376.919 429.86 384.36 420.029 391.323C418.323 389.491 416.428 388.105 414.5 386.72C412.259 385.173 409.935 383.775 407.552 382.492C402.787 379.927 397.783 377.829 392.623 376.24C387.456 374.665 382.107 373.685 376.725 373.42C371.348 373.128 365.933 373.636 360.76 375.008C366.011 373.989 371.381 373.745 376.665 374.263C381.959 374.737 387.136 376.031 392.165 377.667C397.179 379.368 402.024 381.561 406.604 384.192C411.096 386.833 415.727 389.872 418.941 393.597L419.675 394.448L420.545 393.849C430.82 386.764 440.697 379.172 450.437 371.417C460.167 363.649 469.607 355.533 479.001 347.379C488.411 339.236 497.579 330.827 506.643 322.301C511.18 318.049 515.669 313.745 520.06 309.335L526.605 302.681C528.711 300.404 530.984 298.223 532.68 295.611C530.841 298.108 528.407 300.105 526.219 302.293ZM246.877 430.508L241.251 420.68L187.356 450.193L193.087 460.211L246.877 430.508ZM188.253 462.88L182.511 452.845L129.253 482.011L135.101 492.228L188.253 462.88ZM128.224 480.213L181.483 451.048L175.537 440.663L122.242 469.76L128.224 480.213ZM121.214 467.961L174.508 438.864L168.947 429.145L145.16 442.1C147.769 441.684 150.408 443.107 151.417 445.667C152.581 448.621 151.129 451.96 148.173 453.125C145.217 454.293 141.876 452.84 140.712 449.884C139.881 447.777 140.399 445.487 141.825 443.916L115.62 458.189L121.214 467.961ZM114.591 456.393L167.919 427.349L161.944 416.909L108.497 445.745L114.591 456.393ZM107.468 443.944L160.915 415.111L154.827 404.471L101.275 433.125L107.468 443.944ZM159.696 401.865L165.776 412.488L219.863 383.307L213.889 372.869L159.696 401.865ZM220.892 385.104L166.805 414.285L172.768 424.707L226.735 395.316L220.892 385.104ZM227.764 397.111L173.797 426.503L179.357 436.219L233.291 406.771L227.764 397.111ZM234.32 408.567L180.384 438.013L186.327 448.396L240.221 418.881L234.32 408.567ZM571.84 251.075L572.843 252.888L569.74 254.601L320.536 392.203L311.885 396.977L252.74 429.636L254.815 433.261L250.044 436.048L247.904 432.307L194.116 462.007L196.977 467.005L192.208 469.788L189.28 464.676L136.128 494.025L139.767 500.383L134.999 503.165L131.295 496.695L81.588 524.14L71.2156 529.868L70.2156 528.056L80.6125 522.315L130.266 494.896L124.41 484.665L74.9677 511.74L66.0084 516.647L65.0125 514.829L73.9921 509.912L123.381 482.867L117.396 472.407L68.2844 499.22L60.7568 503.332L59.764 501.512L67.3084 497.392L116.367 470.608L110.769 460.833L61.9786 487.405L55.8026 490.767L54.8145 488.951L61.0021 485.581L109.741 459.033L103.637 448.368L55.114 474.549L50.4068 477.087L49.4224 475.265L54.138 472.721L102.608 446.568L96.4046 435.729L48.1697 461.54L44.9531 463.261L43.9771 461.435L47.1948 459.715L95.377 433.932L91.0541 426.383L95.9161 423.759L100.247 431.327L153.796 402.673L149.357 394.915L154.219 392.291L158.667 400.068L212.861 371.071L208.301 363.103L213.161 360.48L217.731 368.465L277.323 336.58L284.716 332.623L339.007 303.575L344.663 300.549L348.945 298.257C346.976 298.644 344.936 298.44 343.053 297.62C340.601 296.556 338.712 294.6 337.729 292.111C336.833 289.839 336.837 287.38 337.651 285.101C338.481 283.8 339.595 282.633 341.081 281.775C343.371 280.441 346.375 280.056 349.133 280.988C351.873 281.911 354.269 284.1 355.344 286.901C355.555 287.42 355.717 287.956 355.833 288.5C355.703 287.957 355.548 287.42 355.344 286.901C354.248 284.14 352.191 281.716 349.444 280.277C347.924 279.455 346.179 278.98 344.372 278.837C345.251 278.592 346.144 278.425 347.045 278.425C348.397 278.425 349.751 278.704 351.032 279.26C353.481 280.327 355.375 282.284 356.355 284.768V284.771C357.335 287.257 357.288 289.979 356.223 292.429L356.161 292.539C356.256 291.179 356.144 289.819 355.835 288.515C356.18 290.149 356.107 291.857 355.663 293.44C354.973 294.631 354.065 295.651 352.971 296.457L353.464 297.384L353.8 298.007L341.992 304.325L285.781 334.401L278.349 338.379L218.76 370.263L224.723 380.681L284.199 348.593L291.837 344.471L385.529 293.921L391.496 290.7L400.227 285.991L400.947 285.603L401.167 286.009L401.897 287.371L401.927 287.424L401.788 287.501L399.923 288.505L388.933 294.439L292.907 346.247L285.227 350.391L225.751 382.48L231.585 392.671L290.928 360.352L298.807 356.06L431.14 283.985L437.035 280.776L446.065 275.857L446.477 275.632L446.796 276.217L447.469 277.448L445.753 278.385L434.492 284.517L299.873 357.836L291.955 362.149L232.615 394.471L238.139 404.123L297.444 371.741L305.567 367.308L476.488 273.987L482.271 270.829L487.104 268.191C482.144 269.757 476.729 267.275 474.789 262.36C473.893 260.088 473.9 257.631 474.711 255.352C475.541 254.052 476.656 252.883 478.143 252.024C480.433 250.691 483.44 250.305 486.196 251.236C488.94 252.157 491.335 254.349 492.411 257.151C492.617 257.669 492.779 258.204 492.893 258.747C492.767 258.205 492.611 257.669 492.411 257.151C491.309 254.389 489.255 251.965 486.504 250.527C484.985 249.704 483.244 249.229 481.436 249.087C482.317 248.841 483.207 248.675 484.107 248.675C485.46 248.675 486.815 248.953 488.095 249.509C490.544 250.576 492.435 252.533 493.416 255.017V255.02C494.395 257.507 494.348 260.227 493.284 262.68L493.224 262.784C493.323 261.427 493.208 260.068 492.897 258.764C493.244 260.396 493.172 262.105 492.724 263.687C492.085 264.795 491.256 265.749 490.26 266.528L490.74 267.407L491.224 268.3L479.708 274.589L306.637 369.084L298.473 373.541L239.167 405.92L245.065 416.228L304.331 383.776L312.711 379.187L522.696 264.195L528.615 260.953L533.957 258.028L534.577 259.161L534.949 259.844L526.105 264.689L313.777 380.963L305.359 385.573L246.096 418.028L251.712 427.84L310.857 395.181L319.469 390.427L566.973 253.761L571.84 251.075ZM551.993 198.26C552.528 200.276 553.684 202.089 555.167 203.449C556.723 204.876 558.596 205.827 560.512 206.447C564.391 207.637 568.468 207.455 572.22 206.489C572.659 206.367 573.081 206.193 573.511 206.047C576.761 204.957 579.785 203.227 582.124 200.781C583.136 199.747 584.02 198.533 584.679 197.224C585.736 195.124 586.215 192.764 585.684 190.444C586.152 192.608 585.717 194.78 584.759 196.709C584.043 198.152 583.043 199.464 581.867 200.519C580.807 201.477 579.613 202.243 578.371 202.916C576.349 204.007 574.161 204.779 571.933 205.197C568.317 205.816 564.555 205.581 561.263 204.296C557.993 203.067 555.184 200.6 554.497 197.421C554.017 195.347 554.503 193.168 555.572 191.204C556.135 190.169 556.855 189.188 557.696 188.324C559.549 186.373 561.901 184.861 564.48 183.813C565.287 183.485 566.112 183.197 566.956 182.964C570.499 182.04 574.345 181.865 577.939 182.96C581.479 184.016 584.811 186.675 585.684 190.444C584.86 186.672 581.592 183.92 578.059 182.609C574.483 181.228 570.493 181 566.667 181.663C562.86 182.387 559.088 183.953 556.089 186.688C555.316 187.417 554.592 188.229 553.96 189.119C553.399 189.911 552.904 190.759 552.533 191.683C551.737 193.627 551.449 195.868 551.907 198L551.993 198.26ZM506.556 208.425C507.092 210.441 508.248 212.253 509.731 213.613C511.288 215.04 513.163 215.991 515.077 216.611C518.957 217.801 523.032 217.62 526.783 216.653C527.225 216.532 527.649 216.357 528.084 216.209C531.331 215.12 534.353 213.389 536.688 210.945C537.703 209.911 538.587 208.696 539.245 207.385C540.303 205.284 540.779 202.927 540.251 200.609C540.716 202.773 540.283 204.943 539.325 206.872C538.611 208.315 537.609 209.628 536.432 210.684C535.375 211.643 534.18 212.405 532.939 213.079C530.916 214.171 528.724 214.944 526.497 215.361C522.879 215.98 519.121 215.747 515.829 214.46C512.556 213.231 509.749 210.764 509.06 207.585C508.599 205.576 509.035 203.465 510.033 201.551C510.607 200.447 511.368 199.405 512.26 198.488C514.112 196.539 516.464 195.028 519.043 193.98C519.848 193.651 520.677 193.363 521.521 193.128C525.064 192.204 528.909 192.029 532.501 193.124C536.043 194.181 539.379 196.84 540.251 200.609C539.424 196.836 536.159 194.085 532.624 192.773C529.048 191.393 525.057 191.164 521.229 191.827C517.425 192.552 513.655 194.117 510.657 196.853C509.843 197.616 509.095 198.473 508.444 199.411C507.919 200.167 507.451 200.971 507.096 201.847C506.301 203.791 506.015 206.032 506.473 208.165L506.556 208.425ZM461.121 218.589C461.657 220.607 462.815 222.419 464.297 223.777C465.855 225.204 467.725 226.155 469.644 226.776C473.521 227.965 477.596 227.784 481.349 226.817C481.793 226.695 482.22 226.52 482.656 226.372C485.897 225.283 488.917 223.553 491.256 221.111C492.271 220.073 493.152 218.86 493.813 217.545C494.871 215.445 495.344 213.088 494.815 210.773C495.281 212.936 494.847 215.105 493.889 217.035C493.175 218.476 492.176 219.791 490.996 220.848C489.941 221.807 488.748 222.571 487.505 223.24C485.485 224.333 483.292 225.109 481.06 225.527C477.444 226.144 473.688 225.911 470.396 224.624C467.121 223.393 464.313 220.929 463.625 217.751C463.163 215.739 463.601 213.628 464.601 211.713C465.173 210.609 465.935 209.569 466.824 208.652C468.675 206.703 471.028 205.192 473.605 204.144C474.413 203.815 475.243 203.527 476.089 203.292C479.629 202.368 483.477 202.195 487.065 203.289C490.608 204.345 493.943 207.003 494.815 210.773C493.989 207 490.723 204.249 487.188 202.939C483.612 201.557 479.624 201.328 475.795 201.992C471.988 202.716 468.221 204.281 465.221 207.017C464.409 207.777 463.663 208.636 463.011 209.573C462.484 210.329 462.016 211.136 461.661 212.012C460.867 213.956 460.579 216.196 461.037 218.329L461.121 218.589ZM415.685 228.749C416.22 230.767 417.377 232.581 418.861 233.943C420.42 235.367 422.291 236.319 424.208 236.94C428.085 238.131 432.163 237.948 435.915 236.98C436.221 236.897 436.515 236.769 436.817 236.676C440.217 235.599 443.387 233.819 445.823 231.275C446.856 230.216 447.752 228.972 448.415 227.627C449.444 225.548 449.905 223.224 449.38 220.939C449.843 223.087 449.417 225.24 448.475 227.16C447.76 228.62 446.753 229.945 445.561 231.011C444.441 232.028 443.168 232.836 441.843 233.531C439.881 234.557 437.772 235.289 435.627 235.691C432.009 236.309 428.249 236.075 424.96 234.789C421.687 233.559 418.881 231.093 418.193 227.915C417.729 225.905 418.164 223.793 419.164 221.879C419.739 220.775 420.5 219.733 421.389 218.817C423.24 216.867 425.595 215.356 428.171 214.308C428.979 213.979 429.809 213.692 430.653 213.457C434.196 212.533 438.043 212.359 441.632 213.453C445.172 214.509 448.507 217.167 449.38 220.939C448.555 217.165 445.289 214.415 441.756 213.103C438.176 211.723 434.188 211.493 430.361 212.156C426.555 212.88 422.784 214.447 419.785 217.183C418.973 217.944 418.225 218.803 417.576 219.739C417.048 220.495 416.583 221.301 416.227 222.176C415.433 224.12 415.144 226.361 415.603 228.493L415.685 228.749ZM370.252 238.915C370.785 240.933 371.944 242.748 373.425 244.108C374.985 245.532 376.857 246.484 378.776 247.104C382.652 248.295 386.728 248.113 390.481 247.145C390.789 247.061 391.081 246.933 391.384 246.837C394.783 245.761 397.951 243.981 400.384 241.44C401.417 240.383 402.313 239.14 402.977 237.799C404.005 235.719 404.469 233.391 403.947 231.101C404.411 233.252 403.983 235.408 403.039 237.328C402.324 238.785 401.315 240.112 400.125 241.175C399.005 242.195 397.731 243 396.405 243.696C394.445 244.723 392.336 245.455 390.192 245.855C386.575 246.475 382.816 246.239 379.524 244.953C376.251 243.723 373.447 241.257 372.757 238.08C372.296 236.069 372.728 233.959 373.727 232.045C374.304 230.94 375.065 229.897 375.953 228.981C377.793 227.045 380.127 225.537 382.681 224.492C383.507 224.153 384.355 223.861 385.219 223.621C388.76 222.697 392.605 222.524 396.197 223.617C399.737 224.672 403.072 227.332 403.947 231.101C403.119 227.328 399.855 224.579 396.323 223.267C392.741 221.887 388.755 221.657 384.929 222.32C381.119 223.045 377.348 224.612 374.351 227.347C373.54 228.111 372.789 228.967 372.141 229.904C371.615 230.661 371.148 231.465 370.791 232.34C370 234.284 369.711 236.527 370.168 238.659L370.252 238.915ZM324.82 249.084C325.353 251.101 326.509 252.912 327.992 254.272C329.553 255.696 331.421 256.648 333.341 257.269C337.219 258.459 341.293 258.277 345.045 257.309C345.356 257.224 345.652 257.096 345.957 257C349.353 255.921 352.519 254.144 354.951 251.604C355.984 250.547 356.879 249.305 357.543 247.961C358.571 245.881 359.035 243.556 358.512 241.265C358.976 243.416 358.548 245.572 357.607 247.492C356.887 248.951 355.88 250.275 354.692 251.339C353.569 252.357 352.299 253.165 350.975 253.86C349.011 254.887 346.904 255.619 344.756 256.019C341.14 256.639 337.383 256.404 334.092 255.117C330.817 253.888 328.011 251.423 327.323 248.244C326.843 246.169 327.329 243.993 328.397 242.029C328.96 240.993 329.679 240.013 330.519 239.145C332.36 237.209 334.697 235.7 337.257 234.655C338.079 234.316 338.923 234.024 339.783 233.785C343.324 232.861 347.171 232.688 350.764 233.781C354.304 234.836 357.636 237.496 358.512 241.265C357.685 237.492 354.417 234.743 350.888 233.431C347.308 232.051 343.319 231.821 339.492 232.485C335.684 233.209 331.915 234.777 328.915 237.511C328.14 238.241 327.42 239.055 326.788 239.943C326.224 240.733 325.733 241.584 325.357 242.504C324.564 244.447 324.275 246.691 324.732 248.823L324.82 249.084ZM584.103 243.844C584.547 242.265 584.617 240.56 584.273 238.928C584.581 240.228 584.693 241.585 584.6 242.941C585.665 240.568 585.82 237.789 584.795 235.184C583.239 231.252 579.459 228.845 575.465 228.845C574.583 228.845 573.697 229.009 572.815 229.253C574.623 229.395 576.363 229.869 577.88 230.693C580.629 232.131 582.685 234.555 583.785 237.317C583.987 237.836 584.141 238.369 584.271 238.912C584.155 238.369 583.993 237.836 583.785 237.317C582.711 234.513 580.312 232.327 577.571 231.404C574.815 230.471 571.808 230.856 569.517 232.187C568.037 233.045 566.925 234.209 566.097 235.507C565.308 237.711 565.243 240.184 566.167 242.528C568.189 247.66 574.019 250.199 579.149 248.167C581.335 247.307 583.008 245.735 584.103 243.844ZM539.107 245.101C537.553 241.169 533.773 238.763 529.78 238.763C528.897 238.763 528.008 238.925 527.129 239.169C528.935 239.312 530.677 239.787 532.193 240.609C534.94 242.048 536.999 244.471 538.096 247.233C538.299 247.751 538.455 248.287 538.583 248.829C538.467 248.287 538.305 247.753 538.096 247.233C537.021 244.431 534.624 242.243 531.885 241.319C529.127 240.388 526.123 240.772 523.832 242.107C522.349 242.961 521.236 244.127 520.408 245.42C519.62 247.625 519.556 250.1 520.477 252.444C522.507 257.581 528.34 260.109 533.461 258.085C535.647 257.223 537.321 255.653 538.413 253.761C538.857 252.183 538.929 250.476 538.584 248.844C538.896 250.148 539.007 251.501 538.915 252.859C539.977 250.484 540.132 247.707 539.107 245.101ZM447.597 272.596C448.664 270.143 448.709 267.424 447.727 264.937C446.749 262.448 444.856 260.492 442.405 259.427C441.128 258.871 439.773 258.589 438.42 258.589C437.521 258.589 436.625 258.759 435.749 259.004C437.555 259.147 439.299 259.621 440.82 260.443C443.564 261.881 445.623 264.307 446.721 267.068C446.924 267.587 447.077 268.123 447.209 268.665C447.092 268.123 446.929 267.587 446.721 267.068C445.647 264.264 443.248 262.077 440.511 261.155C437.752 260.223 434.748 260.607 432.456 261.94C430.969 262.8 429.852 263.969 429.024 265.269C428.212 267.549 428.207 270.005 429.104 272.277C430.085 274.765 431.976 276.72 434.429 277.787C436.877 278.853 439.6 278.903 442.087 277.917C444.215 277.081 445.912 275.552 447.036 273.603C447.481 272.021 447.556 270.313 447.213 268.68C447.521 269.983 447.632 271.344 447.537 272.701L447.597 272.596ZM401.849 282.62C401.945 281.261 401.833 279.904 401.523 278.601C401.869 280.233 401.796 281.94 401.347 283.521C400.223 285.469 398.521 286.999 396.397 287.836C393.913 288.815 391.191 288.771 388.737 287.705C386.287 286.639 384.397 284.684 383.415 282.193C382.517 279.921 382.525 277.463 383.337 275.184C384.167 273.884 385.28 272.716 386.769 271.857C389.057 270.523 392.063 270.139 394.821 271.072C397.563 271.995 399.957 274.181 401.032 276.985C401.244 277.504 401.405 278.037 401.519 278.581C401.389 278.037 401.235 277.504 401.032 276.985C399.937 274.221 397.877 271.797 395.129 270.36C393.611 269.539 391.867 269.063 390.06 268.921C390.941 268.675 391.833 268.508 392.731 268.508C394.088 268.508 395.44 268.788 396.717 269.344C399.171 270.408 401.059 272.364 402.041 274.852V274.855C403.021 277.34 402.973 280.06 401.908 282.513L401.849 282.62Z" fill="white"/>
<path d="M776.266 121.859H923.453V148.695H844.117L844 195.688H904.703V222.523H844V269.164H923.453V296H776.266V121.859ZM952.516 102.523H1016.15V296H952.516V102.523ZM1041.46 237.289C1041.46 230.57 1042.52 224.438 1044.62 218.891C1046.73 213.344 1049.62 208.383 1053.3 204.008C1057.05 199.555 1061.46 195.688 1066.54 192.406C1071.62 189.125 1077.12 186.391 1083.06 184.203C1089 182.016 1095.21 180.375 1101.7 179.281C1108.18 178.188 1114.74 177.641 1121.38 177.641C1130.13 177.641 1138.06 178.539 1145.17 180.336C1152.36 182.055 1158.73 184.438 1164.27 187.484C1169.9 190.531 1174.74 194.086 1178.8 198.148C1182.95 202.211 1186.34 206.547 1189 211.156C1191.73 215.688 1193.73 220.375 1194.98 225.219C1196.3 230.062 1196.97 234.789 1196.97 239.398L1108.38 250.062C1110.09 258.734 1113.53 265.453 1118.69 270.219C1123.84 274.984 1131.07 277.367 1140.37 277.367C1145.45 277.367 1150.17 276.742 1154.55 275.492C1159 274.242 1162.48 272.719 1164.98 270.922L1174.35 287.328C1171.46 288.812 1168.3 290.219 1164.86 291.547C1161.5 292.875 1157.75 294.047 1153.61 295.062C1149.55 296 1145.02 296.742 1140.02 297.289C1135.09 297.914 1129.66 298.227 1123.73 298.227C1109.51 298.227 1097.24 296.586 1086.93 293.305C1076.62 289.945 1068.06 285.492 1061.27 279.945C1054.55 274.32 1049.55 267.836 1046.27 260.492C1043.06 253.148 1041.46 245.414 1041.46 237.289ZM1140.13 227.445C1140.13 217.289 1138.84 209.906 1136.27 205.297C1133.77 200.688 1130.02 198.383 1125.02 198.383C1122.44 198.383 1120.05 199.008 1117.87 200.258C1115.68 201.508 1113.8 203.461 1112.24 206.117C1110.68 208.773 1109.43 212.211 1108.49 216.43C1107.55 220.57 1107.05 225.609 1106.97 231.547L1140.13 227.445ZM1211.27 237.875C1211.27 229.984 1212.91 222.406 1216.19 215.141C1219.55 207.875 1224.59 201.469 1231.3 195.922C1238.02 190.375 1246.5 185.961 1256.73 182.68C1267.05 179.32 1279.16 177.641 1293.06 177.641C1303.06 177.641 1311.62 178.617 1318.73 180.57C1325.84 182.445 1331.66 184.945 1336.19 188.07C1340.72 191.195 1344.04 194.75 1346.15 198.734C1348.26 202.719 1349.31 206.781 1349.31 210.922C1349.31 214.125 1348.57 217.172 1347.09 220.062C1345.6 222.953 1343.61 225.531 1341.11 227.797C1338.61 229.984 1335.68 231.742 1332.32 233.07C1328.96 234.398 1325.41 235.062 1321.66 235.062L1291.89 194.398C1289.7 196.352 1287.67 198.656 1285.8 201.312C1284 203.969 1282.4 207.016 1280.99 210.453C1279.66 213.812 1278.61 217.602 1277.83 221.82C1277.12 225.961 1276.77 230.531 1276.77 235.531C1276.77 242.484 1277.63 248.578 1279.35 253.812C1281.07 259.047 1283.41 263.422 1286.38 266.938C1289.35 270.375 1292.87 272.992 1296.93 274.789C1301.07 276.508 1305.56 277.367 1310.41 277.367C1312.75 277.367 1315.09 277.211 1317.44 276.898C1319.86 276.508 1322.12 276.039 1324.23 275.492C1326.42 274.867 1328.41 274.164 1330.21 273.383C1332.01 272.602 1333.53 271.781 1334.78 270.922L1344.16 287.328C1341.27 288.812 1338.1 290.219 1334.66 291.547C1331.3 292.875 1327.55 294.047 1323.41 295.062C1319.35 296 1314.86 296.742 1309.94 297.289C1305.02 297.914 1299.62 298.227 1293.77 298.227C1279.7 298.227 1267.48 296.586 1257.09 293.305C1246.77 289.945 1238.22 285.492 1231.42 279.945C1224.62 274.398 1219.55 267.992 1216.19 260.727C1212.91 253.461 1211.27 245.844 1211.27 237.875ZM1378.26 199.203H1365.13V179.867H1378.26V141.195H1441.89V179.867H1472.48L1460.52 199.203H1441.89V251.82C1441.89 259.789 1443.65 265.922 1447.16 270.219C1450.76 274.516 1455.88 276.664 1462.52 276.664L1455.25 292.719C1451.19 294.438 1446.85 295.766 1442.24 296.703C1437.71 297.719 1432.44 298.227 1426.42 298.227C1417.98 298.227 1410.72 297.172 1404.62 295.062C1398.53 292.875 1393.53 289.789 1389.62 285.805C1385.72 281.82 1382.83 276.938 1380.95 271.156C1379.16 265.375 1378.26 258.852 1378.26 251.586V199.203ZM1491.34 179.867H1547.48L1553.1 196.742C1557.55 193.461 1561.73 190.648 1565.64 188.305C1569.62 185.883 1573.45 183.891 1577.12 182.328C1580.88 180.688 1584.47 179.516 1587.91 178.812C1591.42 178.031 1594.9 177.641 1598.34 177.641C1603.34 177.641 1607.83 178.344 1611.81 179.75C1615.88 181.156 1619.31 183.148 1622.12 185.727C1625.02 188.305 1627.2 191.391 1628.69 194.984C1630.25 198.5 1631.03 202.406 1631.03 206.703C1631.03 211 1630.09 214.945 1628.22 218.539C1626.42 222.133 1623.77 225.258 1620.25 227.914C1616.73 230.492 1612.4 232.523 1607.24 234.008C1602.16 235.414 1596.34 236.117 1589.78 236.117L1569.16 208.578C1566.89 208.578 1564.43 209.047 1561.77 209.984C1559.12 210.922 1556.85 212.406 1554.98 214.438V296H1491.34V179.867ZM1681.07 160.531C1675.29 160.531 1670.29 159.906 1666.07 158.656C1661.93 157.406 1658.53 155.688 1655.88 153.5C1653.22 151.234 1651.27 148.656 1650.02 145.766C1648.77 142.797 1648.14 139.594 1648.14 136.156C1648.14 132.797 1648.77 129.633 1650.02 126.664C1651.27 123.695 1653.22 121.117 1655.88 118.93C1658.53 116.664 1661.93 114.906 1666.07 113.656C1670.29 112.406 1675.29 111.781 1681.07 111.781C1686.93 111.781 1691.93 112.406 1696.07 113.656C1700.21 114.906 1703.61 116.664 1706.27 118.93C1709 121.117 1710.99 123.695 1712.24 126.664C1713.49 129.633 1714.12 132.797 1714.12 136.156C1714.12 139.594 1713.49 142.797 1712.24 145.766C1710.99 148.656 1709 151.234 1706.27 153.5C1703.61 155.688 1700.21 157.406 1696.07 158.656C1691.93 159.906 1686.93 160.531 1681.07 160.531ZM1649.31 179.867H1712.95V296H1649.31V179.867ZM1738.14 237.875C1738.14 229.984 1739.78 222.406 1743.06 215.141C1746.42 207.875 1751.46 201.469 1758.18 195.922C1764.9 190.375 1773.38 185.961 1783.61 182.68C1793.92 179.32 1806.03 177.641 1819.94 177.641C1829.94 177.641 1838.49 178.617 1845.6 180.57C1852.71 182.445 1858.53 184.945 1863.06 188.07C1867.59 191.195 1870.91 194.75 1873.02 198.734C1875.13 202.719 1876.19 206.781 1876.19 210.922C1876.19 214.125 1875.45 217.172 1873.96 220.062C1872.48 222.953 1870.48 225.531 1867.98 227.797C1865.48 229.984 1862.55 231.742 1859.2 233.07C1855.84 234.398 1852.28 235.062 1848.53 235.062L1818.77 194.398C1816.58 196.352 1814.55 198.656 1812.67 201.312C1810.88 203.969 1809.27 207.016 1807.87 210.453C1806.54 213.812 1805.48 217.602 1804.7 221.82C1804 225.961 1803.65 230.531 1803.65 235.531C1803.65 242.484 1804.51 248.578 1806.23 253.812C1807.95 259.047 1810.29 263.422 1813.26 266.938C1816.23 270.375 1819.74 272.992 1823.8 274.789C1827.95 276.508 1832.44 277.367 1837.28 277.367C1839.62 277.367 1841.97 277.211 1844.31 276.898C1846.73 276.508 1849 276.039 1851.11 275.492C1853.3 274.867 1855.29 274.164 1857.09 273.383C1858.88 272.602 1860.41 271.781 1861.66 270.922L1871.03 287.328C1868.14 288.812 1864.98 290.219 1861.54 291.547C1858.18 292.875 1854.43 294.047 1850.29 295.062C1846.23 296 1841.73 296.742 1836.81 297.289C1831.89 297.914 1826.5 298.227 1820.64 298.227C1806.58 298.227 1794.35 296.586 1783.96 293.305C1773.65 289.945 1765.09 285.492 1758.3 279.945C1751.5 274.398 1746.42 267.992 1743.06 260.727C1739.78 253.461 1738.14 245.844 1738.14 237.875ZM1967.01 209.047C1967.01 200.766 1968.06 192.797 1970.17 185.141C1972.36 177.406 1975.52 170.219 1979.66 163.578C1983.8 156.938 1988.88 150.883 1994.9 145.414C2000.91 139.945 2007.75 135.258 2015.41 131.352C2023.14 127.445 2031.66 124.438 2040.95 122.328C2050.25 120.141 2060.25 119.047 2070.95 119.047C2077.83 119.047 2084.39 119.477 2090.64 120.336C2096.97 121.195 2102.91 122.406 2108.45 123.969C2114 125.453 2119.12 127.211 2123.8 129.242C2128.57 131.195 2132.87 133.266 2136.7 135.453L2126.62 155.141C2122.24 153.031 2117.24 151.273 2111.62 149.867C2106.07 148.383 2100.29 147.641 2094.27 147.641C2086.23 147.641 2078.77 149.086 2071.89 151.977C2065.02 154.867 2059.08 158.969 2054.08 164.281C2049.08 169.594 2045.13 176.039 2042.24 183.617C2039.43 191.117 2038.02 199.555 2038.02 208.93C2038.02 218.227 2039.43 226.664 2042.24 234.242C2045.05 241.742 2048.92 248.188 2053.84 253.578C2058.84 258.891 2064.74 263.031 2071.54 266C2078.41 268.891 2085.84 270.336 2093.8 270.336V211.391H2162.12L2149.94 233.539V280.883L2150.05 281.117C2146.23 283.383 2141.5 285.57 2135.88 287.68C2130.25 289.789 2123.96 291.703 2117.01 293.422C2110.13 295.062 2102.79 296.391 2094.98 297.406C2087.16 298.422 2079.16 298.93 2070.95 298.93C2054.94 298.93 2040.48 296.586 2027.59 291.898C2014.78 287.133 2003.88 280.688 1994.9 272.562C1985.91 264.359 1979 254.828 1974.16 243.969C1969.39 233.031 1967.01 221.391 1967.01 209.047ZM2181.34 179.75H2244.98V250.766C2244.98 253.891 2245.25 256.508 2245.8 258.617C2246.34 260.727 2247.16 262.445 2248.26 263.773C2249.43 265.023 2250.84 265.961 2252.48 266.586C2254.12 267.133 2256.07 267.406 2258.34 267.406C2261.15 267.406 2263.61 266.977 2265.72 266.117C2267.83 265.18 2269.98 263.578 2272.16 261.312V179.75H2335.8V295.883H2279.66L2274.04 279.008C2266.93 285.961 2259.23 290.922 2250.95 293.891C2242.67 296.781 2234.23 298.227 2225.64 298.227C2211.5 298.227 2200.56 294.438 2192.83 286.859C2185.17 279.203 2181.34 267.445 2181.34 251.586V179.75ZM2400.37 160.531C2394.59 160.531 2389.59 159.906 2385.37 158.656C2381.23 157.406 2377.83 155.688 2375.17 153.5C2372.52 151.234 2370.56 148.656 2369.31 145.766C2368.06 142.797 2367.44 139.594 2367.44 136.156C2367.44 132.797 2368.06 129.633 2369.31 126.664C2370.56 123.695 2372.52 121.117 2375.17 118.93C2377.83 116.664 2381.23 114.906 2385.37 113.656C2389.59 112.406 2394.59 111.781 2400.37 111.781C2406.23 111.781 2411.23 112.406 2415.37 113.656C2419.51 114.906 2422.91 116.664 2425.56 118.93C2428.3 121.117 2430.29 123.695 2431.54 126.664C2432.79 129.633 2433.41 132.797 2433.41 136.156C2433.41 139.594 2432.79 142.797 2431.54 145.766C2430.29 148.656 2428.3 151.234 2425.56 153.5C2422.91 155.688 2419.51 157.406 2415.37 158.656C2411.23 159.906 2406.23 160.531 2400.37 160.531ZM2368.61 179.867H2432.24V296H2368.61V179.867ZM2471.85 199.203H2458.73V179.867H2471.85V141.195H2535.48V179.867H2566.07L2554.12 199.203H2535.48V251.82C2535.48 259.789 2537.24 265.922 2540.76 270.219C2544.35 274.516 2549.47 276.664 2556.11 276.664L2548.84 292.719C2544.78 294.438 2540.45 295.766 2535.84 296.703C2531.3 297.719 2526.03 298.227 2520.02 298.227C2511.58 298.227 2504.31 297.172 2498.22 295.062C2492.12 292.875 2487.12 289.789 2483.22 285.805C2479.31 281.82 2476.42 276.938 2474.55 271.156C2472.75 265.375 2471.85 258.852 2471.85 251.586V199.203ZM2577.32 259.438C2577.32 253.812 2578.57 248.578 2581.07 243.734C2583.57 238.891 2587.16 234.672 2591.85 231.078C2596.54 227.484 2602.2 224.672 2608.84 222.641C2615.48 220.531 2622.91 219.477 2631.11 219.477C2639.31 219.477 2646.97 220.453 2654.08 222.406C2661.27 224.281 2667.28 226.703 2672.12 229.672V228.734C2672.12 223.266 2671.5 218.617 2670.25 214.789C2669.08 210.961 2667.24 207.836 2664.74 205.414C2662.24 202.992 2659.04 201.234 2655.13 200.141C2651.3 199.047 2646.77 198.5 2641.54 198.5C2636.77 198.5 2631.85 198.93 2626.77 199.789C2621.7 200.57 2617.01 201.742 2612.71 203.305L2604.16 187.484C2612.67 183.969 2621.46 181.469 2630.52 179.984C2639.66 178.422 2649.08 177.641 2658.77 177.641C2671.19 177.641 2682.16 178.852 2691.7 181.273C2701.3 183.617 2709.35 187.172 2715.84 191.938C2722.4 196.625 2727.36 202.562 2730.72 209.75C2734.08 216.859 2735.76 225.219 2735.76 234.828V296H2676.34L2672.36 284.75C2670.02 286.547 2667.24 288.266 2664.04 289.906C2660.84 291.547 2657.32 292.992 2653.49 294.242C2649.66 295.492 2645.6 296.469 2641.3 297.172C2637.01 297.875 2632.52 298.227 2627.83 298.227C2620.17 298.227 2613.22 297.25 2606.97 295.297C2600.8 293.266 2595.52 290.531 2591.15 287.094C2586.77 283.656 2583.38 279.594 2580.95 274.906C2578.53 270.141 2577.32 264.984 2577.32 259.438ZM2642.95 256.977C2642.95 261.195 2644.31 264.633 2647.05 267.289C2649.78 269.867 2653.45 271.156 2658.06 271.156C2660.56 271.156 2663.02 270.766 2665.45 269.984C2667.87 269.125 2670.09 267.875 2672.12 266.234V246.43C2668.22 244.086 2663.92 242.914 2659.23 242.914C2653.92 242.914 2649.86 244.242 2647.05 246.898C2644.31 249.477 2642.95 252.836 2642.95 256.977ZM2767.52 179.867H2823.65L2829.27 196.742C2833.73 193.461 2837.91 190.648 2841.81 188.305C2845.8 185.883 2849.62 183.891 2853.3 182.328C2857.05 180.688 2860.64 179.516 2864.08 178.812C2867.59 178.031 2871.07 177.641 2874.51 177.641C2879.51 177.641 2884 178.344 2887.98 179.75C2892.05 181.156 2895.48 183.148 2898.3 185.727C2901.19 188.305 2903.38 191.391 2904.86 194.984C2906.42 198.5 2907.2 202.406 2907.2 206.703C2907.2 211 2906.27 214.945 2904.39 218.539C2902.59 222.133 2899.94 225.258 2896.42 227.914C2892.91 230.492 2888.57 232.523 2883.41 234.008C2878.34 235.414 2872.52 236.117 2865.95 236.117L2845.33 208.578C2843.06 208.578 2840.6 209.047 2837.95 209.984C2835.29 210.922 2833.02 212.406 2831.15 214.438V296H2767.52V179.867ZM778.609 572.328C786.891 576.547 795.562 579.711 804.625 581.82C813.688 583.93 822.125 584.984 829.938 584.984C838.922 584.984 845.484 583.695 849.625 581.117C853.844 578.539 855.953 575.023 855.953 570.57C855.953 569.164 855.68 567.719 855.133 566.234C854.664 564.75 853.688 563.305 852.203 561.898C850.797 560.414 848.805 558.969 846.227 557.562C843.727 556.078 840.445 554.633 836.383 553.227L815.406 546.078C800.406 540.922 789.117 533.969 781.539 525.219C773.961 516.391 770.172 505.922 770.172 493.812C770.172 486 771.812 478.5 775.094 471.312C778.375 464.047 783.336 457.68 789.977 452.211C796.617 446.664 804.977 442.25 815.055 438.969C825.211 435.688 837.086 434.047 850.68 434.047C857.398 434.047 863.844 434.438 870.016 435.219C876.188 436 881.969 437.016 887.359 438.266C892.828 439.516 897.828 440.961 902.359 442.602C906.891 444.164 910.875 445.727 914.312 447.289L901.656 470.141C899.156 468.578 896.5 467.211 893.688 466.039C890.953 464.867 888.18 463.891 885.367 463.109C882.633 462.328 879.938 461.742 877.281 461.352C874.625 460.961 872.203 460.766 870.016 460.766C866.266 460.766 862.984 461.273 860.172 462.289C857.359 463.227 854.977 464.516 853.023 466.156C851.148 467.719 849.703 469.516 848.688 471.547C847.75 473.5 847.281 475.453 847.281 477.406C847.281 479.125 847.672 480.805 848.453 482.445C849.312 484.008 850.719 485.57 852.672 487.133C854.703 488.617 857.32 490.141 860.523 491.703C863.805 493.188 867.867 494.75 872.711 496.391L886.773 501.078C902.008 506.156 913.648 513.148 921.695 522.055C929.742 530.961 933.766 541.742 933.766 554.398C933.766 562.992 931.812 570.922 927.906 578.188C924.078 585.453 918.336 591.742 910.68 597.055C903.023 602.289 893.492 606.391 882.086 609.359C870.758 612.25 857.594 613.695 842.594 613.695C835.406 613.695 828.453 613.305 821.734 612.523C815.094 611.82 808.57 610.727 802.164 609.242C795.836 607.758 789.586 605.883 783.414 603.617C777.242 601.352 771.07 598.695 764.898 595.648L778.609 572.328ZM960.484 417.523H1024.12V513.5C1032.87 507.172 1041.81 502.133 1050.95 498.383C1060.17 494.555 1069.82 492.641 1079.9 492.641C1085.29 492.641 1090.29 493.539 1094.9 495.336C1099.59 497.133 1103.65 499.906 1107.09 503.656C1110.52 507.406 1113.22 512.25 1115.17 518.188C1117.12 524.047 1118.1 531.078 1118.1 539.281V611H1054.47V535.297C1054.47 531.234 1053.57 528.266 1051.77 526.391C1050.05 524.516 1047.2 523.578 1043.22 523.578C1041.42 523.578 1039.62 523.852 1037.83 524.398C1036.11 524.945 1034.43 525.648 1032.79 526.508C1031.15 527.367 1029.59 528.344 1028.1 529.438C1026.62 530.531 1025.29 531.625 1024.12 532.719V611H960.484V417.523ZM1142.24 552.992C1142.24 543.773 1144.12 535.453 1147.87 528.031C1151.7 520.609 1157.16 514.281 1164.27 509.047C1171.46 503.812 1180.21 499.789 1190.52 496.977C1200.84 494.086 1212.55 492.641 1225.68 492.641C1238.8 492.641 1250.52 494.086 1260.84 496.977C1271.15 499.789 1279.86 503.812 1286.97 509.047C1294.16 514.281 1299.62 520.609 1303.38 528.031C1307.2 535.453 1309.12 543.773 1309.12 552.992C1309.12 562.133 1307.2 570.414 1303.38 577.836C1299.62 585.258 1294.16 591.586 1286.97 596.82C1279.86 602.055 1271.15 606.117 1260.84 609.008C1250.52 611.82 1238.8 613.227 1225.68 613.227C1212.55 613.227 1200.84 611.82 1190.52 609.008C1180.21 606.117 1171.46 602.055 1164.27 596.82C1157.16 591.586 1151.7 585.258 1147.87 577.836C1144.12 570.414 1142.24 562.133 1142.24 552.992ZM1225.68 591.781C1228.57 591.781 1231.15 591.195 1233.41 590.023C1235.68 588.852 1237.55 586.82 1239.04 583.93C1240.52 580.961 1241.66 576.977 1242.44 571.977C1243.22 566.977 1243.61 560.648 1243.61 552.992C1243.61 545.258 1243.22 538.891 1242.44 533.891C1241.66 528.891 1240.52 524.945 1239.04 522.055C1237.55 519.086 1235.68 517.016 1233.41 515.844C1231.15 514.672 1228.57 514.086 1225.68 514.086C1222.71 514.086 1220.09 514.672 1217.83 515.844C1215.64 517.016 1213.8 519.086 1212.32 522.055C1210.84 524.945 1209.7 528.891 1208.92 533.891C1208.14 538.891 1207.75 545.258 1207.75 552.992C1207.75 560.648 1208.14 566.977 1208.92 571.977C1209.7 576.977 1210.84 580.961 1212.32 583.93C1213.8 586.82 1215.64 588.852 1217.83 590.023C1220.09 591.195 1222.71 591.781 1225.68 591.781ZM1334.31 494.867H1392.91L1397.83 510.102C1400.02 507.992 1402.63 505.883 1405.68 503.773C1408.73 501.664 1412.09 499.789 1415.76 498.148C1419.43 496.508 1423.38 495.18 1427.59 494.164C1431.89 493.148 1436.34 492.641 1440.95 492.641C1449.78 492.641 1458.06 493.93 1465.8 496.508C1473.53 499.086 1480.29 502.914 1486.07 507.992C1491.85 513.07 1496.38 519.359 1499.66 526.859C1503.02 534.359 1504.7 543.07 1504.7 552.992C1504.7 562.133 1503.1 570.414 1499.9 577.836C1496.77 585.18 1492.24 591.508 1486.3 596.82C1480.37 602.055 1473.14 606.117 1464.62 609.008C1456.19 611.82 1446.7 613.227 1436.15 613.227C1428.1 613.227 1420.84 612.289 1414.35 610.414C1407.95 608.461 1402.48 605.766 1397.95 602.328V669.008H1334.31V494.867ZM1397.95 586.977C1399.9 588.773 1402.09 590.18 1404.51 591.195C1406.93 592.211 1409.35 592.719 1411.77 592.719C1415.68 592.719 1419.27 592.016 1422.55 590.609C1425.91 589.125 1428.8 586.859 1431.23 583.812C1433.73 580.766 1435.64 576.898 1436.97 572.211C1438.38 567.445 1439.08 561.742 1439.08 555.102C1439.08 548.383 1438.41 542.641 1437.09 537.875C1435.84 533.109 1434.08 529.242 1431.81 526.273C1429.55 523.227 1426.85 521 1423.73 519.594C1420.6 518.188 1417.16 517.484 1413.41 517.484C1410.45 517.484 1407.63 518.031 1404.98 519.125C1402.32 520.141 1399.98 521.547 1397.95 523.344V586.977Z" fill="#333333" fill-opacity="0.98"/>
<path d="M760.266 107.859H907.453V134.695H828.117L828 181.688H888.703V208.523H828V255.164H907.453V282H760.266V107.859ZM936.516 88.5234H1000.15V282H936.516V88.5234ZM1025.46 223.289C1025.46 216.57 1026.52 210.438 1028.62 204.891C1030.73 199.344 1033.62 194.383 1037.3 190.008C1041.05 185.555 1045.46 181.688 1050.54 178.406C1055.62 175.125 1061.12 172.391 1067.06 170.203C1073 168.016 1079.21 166.375 1085.7 165.281C1092.18 164.188 1098.74 163.641 1105.38 163.641C1114.13 163.641 1122.06 164.539 1129.17 166.336C1136.36 168.055 1142.73 170.438 1148.27 173.484C1153.9 176.531 1158.74 180.086 1162.8 184.148C1166.95 188.211 1170.34 192.547 1173 197.156C1175.73 201.688 1177.73 206.375 1178.98 211.219C1180.3 216.062 1180.97 220.789 1180.97 225.398L1092.38 236.062C1094.09 244.734 1097.53 251.453 1102.69 256.219C1107.84 260.984 1115.07 263.367 1124.37 263.367C1129.45 263.367 1134.17 262.742 1138.55 261.492C1143 260.242 1146.48 258.719 1148.98 256.922L1158.35 273.328C1155.46 274.812 1152.3 276.219 1148.86 277.547C1145.5 278.875 1141.75 280.047 1137.61 281.062C1133.55 282 1129.02 282.742 1124.02 283.289C1119.09 283.914 1113.66 284.227 1107.73 284.227C1093.51 284.227 1081.24 282.586 1070.93 279.305C1060.62 275.945 1052.06 271.492 1045.27 265.945C1038.55 260.32 1033.55 253.836 1030.27 246.492C1027.06 239.148 1025.46 231.414 1025.46 223.289ZM1124.13 213.445C1124.13 203.289 1122.84 195.906 1120.27 191.297C1117.77 186.688 1114.02 184.383 1109.02 184.383C1106.44 184.383 1104.05 185.008 1101.87 186.258C1099.68 187.508 1097.8 189.461 1096.24 192.117C1094.68 194.773 1093.43 198.211 1092.49 202.43C1091.55 206.57 1091.05 211.609 1090.97 217.547L1124.13 213.445ZM1195.27 223.875C1195.27 215.984 1196.91 208.406 1200.19 201.141C1203.55 193.875 1208.59 187.469 1215.3 181.922C1222.02 176.375 1230.5 171.961 1240.73 168.68C1251.05 165.32 1263.16 163.641 1277.06 163.641C1287.06 163.641 1295.62 164.617 1302.73 166.57C1309.84 168.445 1315.66 170.945 1320.19 174.07C1324.72 177.195 1328.04 180.75 1330.15 184.734C1332.26 188.719 1333.31 192.781 1333.31 196.922C1333.31 200.125 1332.57 203.172 1331.09 206.062C1329.6 208.953 1327.61 211.531 1325.11 213.797C1322.61 215.984 1319.68 217.742 1316.32 219.07C1312.96 220.398 1309.41 221.062 1305.66 221.062L1275.89 180.398C1273.7 182.352 1271.67 184.656 1269.8 187.312C1268 189.969 1266.4 193.016 1264.99 196.453C1263.66 199.812 1262.61 203.602 1261.83 207.82C1261.12 211.961 1260.77 216.531 1260.77 221.531C1260.77 228.484 1261.63 234.578 1263.35 239.812C1265.07 245.047 1267.41 249.422 1270.38 252.938C1273.35 256.375 1276.87 258.992 1280.93 260.789C1285.07 262.508 1289.56 263.367 1294.41 263.367C1296.75 263.367 1299.09 263.211 1301.44 262.898C1303.86 262.508 1306.12 262.039 1308.23 261.492C1310.42 260.867 1312.41 260.164 1314.21 259.383C1316.01 258.602 1317.53 257.781 1318.78 256.922L1328.16 273.328C1325.27 274.812 1322.1 276.219 1318.66 277.547C1315.3 278.875 1311.55 280.047 1307.41 281.062C1303.35 282 1298.86 282.742 1293.94 283.289C1289.02 283.914 1283.62 284.227 1277.77 284.227C1263.7 284.227 1251.48 282.586 1241.09 279.305C1230.77 275.945 1222.22 271.492 1215.42 265.945C1208.62 260.398 1203.55 253.992 1200.19 246.727C1196.91 239.461 1195.27 231.844 1195.27 223.875ZM1362.26 185.203H1349.13V165.867H1362.26V127.195H1425.89V165.867H1456.48L1444.52 185.203H1425.89V237.82C1425.89 245.789 1427.65 251.922 1431.16 256.219C1434.76 260.516 1439.88 262.664 1446.52 262.664L1439.25 278.719C1435.19 280.438 1430.85 281.766 1426.24 282.703C1421.71 283.719 1416.44 284.227 1410.42 284.227C1401.98 284.227 1394.72 283.172 1388.62 281.062C1382.53 278.875 1377.53 275.789 1373.62 271.805C1369.72 267.82 1366.83 262.938 1364.95 257.156C1363.16 251.375 1362.26 244.852 1362.26 237.586V185.203ZM1475.34 165.867H1531.48L1537.1 182.742C1541.55 179.461 1545.73 176.648 1549.64 174.305C1553.62 171.883 1557.45 169.891 1561.12 168.328C1564.88 166.688 1568.47 165.516 1571.91 164.812C1575.42 164.031 1578.9 163.641 1582.34 163.641C1587.34 163.641 1591.83 164.344 1595.81 165.75C1599.88 167.156 1603.31 169.148 1606.12 171.727C1609.02 174.305 1611.2 177.391 1612.69 180.984C1614.25 184.5 1615.03 188.406 1615.03 192.703C1615.03 197 1614.09 200.945 1612.22 204.539C1610.42 208.133 1607.77 211.258 1604.25 213.914C1600.73 216.492 1596.4 218.523 1591.24 220.008C1586.16 221.414 1580.34 222.117 1573.78 222.117L1553.16 194.578C1550.89 194.578 1548.43 195.047 1545.77 195.984C1543.12 196.922 1540.85 198.406 1538.98 200.438V282H1475.34V165.867ZM1665.07 146.531C1659.29 146.531 1654.29 145.906 1650.07 144.656C1645.93 143.406 1642.53 141.688 1639.88 139.5C1637.22 137.234 1635.27 134.656 1634.02 131.766C1632.77 128.797 1632.14 125.594 1632.14 122.156C1632.14 118.797 1632.77 115.633 1634.02 112.664C1635.27 109.695 1637.22 107.117 1639.88 104.93C1642.53 102.664 1645.93 100.906 1650.07 99.6562C1654.29 98.4062 1659.29 97.7812 1665.07 97.7812C1670.93 97.7812 1675.93 98.4062 1680.07 99.6562C1684.21 100.906 1687.61 102.664 1690.27 104.93C1693 107.117 1694.99 109.695 1696.24 112.664C1697.49 115.633 1698.12 118.797 1698.12 122.156C1698.12 125.594 1697.49 128.797 1696.24 131.766C1694.99 134.656 1693 137.234 1690.27 139.5C1687.61 141.688 1684.21 143.406 1680.07 144.656C1675.93 145.906 1670.93 146.531 1665.07 146.531ZM1633.31 165.867H1696.95V282H1633.31V165.867ZM1722.14 223.875C1722.14 215.984 1723.78 208.406 1727.06 201.141C1730.42 193.875 1735.46 187.469 1742.18 181.922C1748.9 176.375 1757.38 171.961 1767.61 168.68C1777.92 165.32 1790.03 163.641 1803.94 163.641C1813.94 163.641 1822.49 164.617 1829.6 166.57C1836.71 168.445 1842.53 170.945 1847.06 174.07C1851.59 177.195 1854.91 180.75 1857.02 184.734C1859.13 188.719 1860.19 192.781 1860.19 196.922C1860.19 200.125 1859.45 203.172 1857.96 206.062C1856.48 208.953 1854.48 211.531 1851.98 213.797C1849.48 215.984 1846.55 217.742 1843.2 219.07C1839.84 220.398 1836.28 221.062 1832.53 221.062L1802.77 180.398C1800.58 182.352 1798.55 184.656 1796.67 187.312C1794.88 189.969 1793.27 193.016 1791.87 196.453C1790.54 199.812 1789.48 203.602 1788.7 207.82C1788 211.961 1787.65 216.531 1787.65 221.531C1787.65 228.484 1788.51 234.578 1790.23 239.812C1791.95 245.047 1794.29 249.422 1797.26 252.938C1800.23 256.375 1803.74 258.992 1807.8 260.789C1811.95 262.508 1816.44 263.367 1821.28 263.367C1823.62 263.367 1825.97 263.211 1828.31 262.898C1830.73 262.508 1833 262.039 1835.11 261.492C1837.3 260.867 1839.29 260.164 1841.09 259.383C1842.88 258.602 1844.41 257.781 1845.66 256.922L1855.03 273.328C1852.14 274.812 1848.98 276.219 1845.54 277.547C1842.18 278.875 1838.43 280.047 1834.29 281.062C1830.23 282 1825.73 282.742 1820.81 283.289C1815.89 283.914 1810.5 284.227 1804.64 284.227C1790.58 284.227 1778.35 282.586 1767.96 279.305C1757.65 275.945 1749.09 271.492 1742.3 265.945C1735.5 260.398 1730.42 253.992 1727.06 246.727C1723.78 239.461 1722.14 231.844 1722.14 223.875ZM1951.01 195.047C1951.01 186.766 1952.06 178.797 1954.17 171.141C1956.36 163.406 1959.52 156.219 1963.66 149.578C1967.8 142.938 1972.88 136.883 1978.9 131.414C1984.91 125.945 1991.75 121.258 1999.41 117.352C2007.14 113.445 2015.66 110.438 2024.95 108.328C2034.25 106.141 2044.25 105.047 2054.95 105.047C2061.83 105.047 2068.39 105.477 2074.64 106.336C2080.97 107.195 2086.91 108.406 2092.45 109.969C2098 111.453 2103.12 113.211 2107.8 115.242C2112.57 117.195 2116.87 119.266 2120.7 121.453L2110.62 141.141C2106.24 139.031 2101.24 137.273 2095.62 135.867C2090.07 134.383 2084.29 133.641 2078.27 133.641C2070.23 133.641 2062.77 135.086 2055.89 137.977C2049.02 140.867 2043.08 144.969 2038.08 150.281C2033.08 155.594 2029.13 162.039 2026.24 169.617C2023.43 177.117 2022.02 185.555 2022.02 194.93C2022.02 204.227 2023.43 212.664 2026.24 220.242C2029.05 227.742 2032.92 234.188 2037.84 239.578C2042.84 244.891 2048.74 249.031 2055.54 252C2062.41 254.891 2069.84 256.336 2077.8 256.336V197.391H2146.12L2133.94 219.539V266.883L2134.05 267.117C2130.23 269.383 2125.5 271.57 2119.88 273.68C2114.25 275.789 2107.96 277.703 2101.01 279.422C2094.13 281.062 2086.79 282.391 2078.98 283.406C2071.16 284.422 2063.16 284.93 2054.95 284.93C2038.94 284.93 2024.48 282.586 2011.59 277.898C1998.78 273.133 1987.88 266.688 1978.9 258.562C1969.91 250.359 1963 240.828 1958.16 229.969C1953.39 219.031 1951.01 207.391 1951.01 195.047ZM2165.34 165.75H2228.98V236.766C2228.98 239.891 2229.25 242.508 2229.8 244.617C2230.34 246.727 2231.16 248.445 2232.26 249.773C2233.43 251.023 2234.84 251.961 2236.48 252.586C2238.12 253.133 2240.07 253.406 2242.34 253.406C2245.15 253.406 2247.61 252.977 2249.72 252.117C2251.83 251.18 2253.98 249.578 2256.16 247.312V165.75H2319.8V281.883H2263.66L2258.04 265.008C2250.93 271.961 2243.23 276.922 2234.95 279.891C2226.67 282.781 2218.23 284.227 2209.64 284.227C2195.5 284.227 2184.56 280.438 2176.83 272.859C2169.17 265.203 2165.34 253.445 2165.34 237.586V165.75ZM2384.37 146.531C2378.59 146.531 2373.59 145.906 2369.37 144.656C2365.23 143.406 2361.83 141.688 2359.17 139.5C2356.52 137.234 2354.56 134.656 2353.31 131.766C2352.06 128.797 2351.44 125.594 2351.44 122.156C2351.44 118.797 2352.06 115.633 2353.31 112.664C2354.56 109.695 2356.52 107.117 2359.17 104.93C2361.83 102.664 2365.23 100.906 2369.37 99.6562C2373.59 98.4062 2378.59 97.7812 2384.37 97.7812C2390.23 97.7812 2395.23 98.4062 2399.37 99.6562C2403.51 100.906 2406.91 102.664 2409.56 104.93C2412.3 107.117 2414.29 109.695 2415.54 112.664C2416.79 115.633 2417.41 118.797 2417.41 122.156C2417.41 125.594 2416.79 128.797 2415.54 131.766C2414.29 134.656 2412.3 137.234 2409.56 139.5C2406.91 141.688 2403.51 143.406 2399.37 144.656C2395.23 145.906 2390.23 146.531 2384.37 146.531ZM2352.61 165.867H2416.24V282H2352.61V165.867ZM2455.85 185.203H2442.73V165.867H2455.85V127.195H2519.48V165.867H2550.07L2538.12 185.203H2519.48V237.82C2519.48 245.789 2521.24 251.922 2524.76 256.219C2528.35 260.516 2533.47 262.664 2540.11 262.664L2532.84 278.719C2528.78 280.438 2524.45 281.766 2519.84 282.703C2515.3 283.719 2510.03 284.227 2504.02 284.227C2495.58 284.227 2488.31 283.172 2482.22 281.062C2476.12 278.875 2471.12 275.789 2467.22 271.805C2463.31 267.82 2460.42 262.938 2458.55 257.156C2456.75 251.375 2455.85 244.852 2455.85 237.586V185.203ZM2561.32 245.438C2561.32 239.812 2562.57 234.578 2565.07 229.734C2567.57 224.891 2571.16 220.672 2575.85 217.078C2580.54 213.484 2586.2 210.672 2592.84 208.641C2599.48 206.531 2606.91 205.477 2615.11 205.477C2623.31 205.477 2630.97 206.453 2638.08 208.406C2645.27 210.281 2651.28 212.703 2656.12 215.672V214.734C2656.12 209.266 2655.5 204.617 2654.25 200.789C2653.08 196.961 2651.24 193.836 2648.74 191.414C2646.24 188.992 2643.04 187.234 2639.13 186.141C2635.3 185.047 2630.77 184.5 2625.54 184.5C2620.77 184.5 2615.85 184.93 2610.77 185.789C2605.7 186.57 2601.01 187.742 2596.71 189.305L2588.16 173.484C2596.67 169.969 2605.46 167.469 2614.52 165.984C2623.66 164.422 2633.08 163.641 2642.77 163.641C2655.19 163.641 2666.16 164.852 2675.7 167.273C2685.3 169.617 2693.35 173.172 2699.84 177.938C2706.4 182.625 2711.36 188.562 2714.72 195.75C2718.08 202.859 2719.76 211.219 2719.76 220.828V282H2660.34L2656.36 270.75C2654.02 272.547 2651.24 274.266 2648.04 275.906C2644.84 277.547 2641.32 278.992 2637.49 280.242C2633.66 281.492 2629.6 282.469 2625.3 283.172C2621.01 283.875 2616.52 284.227 2611.83 284.227C2604.17 284.227 2597.22 283.25 2590.97 281.297C2584.8 279.266 2579.52 276.531 2575.15 273.094C2570.77 269.656 2567.38 265.594 2564.95 260.906C2562.53 256.141 2561.32 250.984 2561.32 245.438ZM2626.95 242.977C2626.95 247.195 2628.31 250.633 2631.05 253.289C2633.78 255.867 2637.45 257.156 2642.06 257.156C2644.56 257.156 2647.02 256.766 2649.45 255.984C2651.87 255.125 2654.09 253.875 2656.12 252.234V232.43C2652.22 230.086 2647.92 228.914 2643.23 228.914C2637.92 228.914 2633.86 230.242 2631.05 232.898C2628.31 235.477 2626.95 238.836 2626.95 242.977ZM2751.52 165.867H2807.65L2813.27 182.742C2817.73 179.461 2821.91 176.648 2825.81 174.305C2829.8 171.883 2833.62 169.891 2837.3 168.328C2841.05 166.688 2844.64 165.516 2848.08 164.812C2851.59 164.031 2855.07 163.641 2858.51 163.641C2863.51 163.641 2868 164.344 2871.98 165.75C2876.05 167.156 2879.48 169.148 2882.3 171.727C2885.19 174.305 2887.38 177.391 2888.86 180.984C2890.42 184.5 2891.2 188.406 2891.2 192.703C2891.2 197 2890.27 200.945 2888.39 204.539C2886.59 208.133 2883.94 211.258 2880.42 213.914C2876.91 216.492 2872.57 218.523 2867.41 220.008C2862.34 221.414 2856.52 222.117 2849.95 222.117L2829.33 194.578C2827.06 194.578 2824.6 195.047 2821.95 195.984C2819.29 196.922 2817.02 198.406 2815.15 200.438V282H2751.52V165.867ZM762.609 558.328C770.891 562.547 779.562 565.711 788.625 567.82C797.688 569.93 806.125 570.984 813.938 570.984C822.922 570.984 829.484 569.695 833.625 567.117C837.844 564.539 839.953 561.023 839.953 556.57C839.953 555.164 839.68 553.719 839.133 552.234C838.664 550.75 837.688 549.305 836.203 547.898C834.797 546.414 832.805 544.969 830.227 543.562C827.727 542.078 824.445 540.633 820.383 539.227L799.406 532.078C784.406 526.922 773.117 519.969 765.539 511.219C757.961 502.391 754.172 491.922 754.172 479.812C754.172 472 755.812 464.5 759.094 457.312C762.375 450.047 767.336 443.68 773.977 438.211C780.617 432.664 788.977 428.25 799.055 424.969C809.211 421.688 821.086 420.047 834.68 420.047C841.398 420.047 847.844 420.438 854.016 421.219C860.188 422 865.969 423.016 871.359 424.266C876.828 425.516 881.828 426.961 886.359 428.602C890.891 430.164 894.875 431.727 898.312 433.289L885.656 456.141C883.156 454.578 880.5 453.211 877.688 452.039C874.953 450.867 872.18 449.891 869.367 449.109C866.633 448.328 863.938 447.742 861.281 447.352C858.625 446.961 856.203 446.766 854.016 446.766C850.266 446.766 846.984 447.273 844.172 448.289C841.359 449.227 838.977 450.516 837.023 452.156C835.148 453.719 833.703 455.516 832.688 457.547C831.75 459.5 831.281 461.453 831.281 463.406C831.281 465.125 831.672 466.805 832.453 468.445C833.312 470.008 834.719 471.57 836.672 473.133C838.703 474.617 841.32 476.141 844.523 477.703C847.805 479.188 851.867 480.75 856.711 482.391L870.773 487.078C886.008 492.156 897.648 499.148 905.695 508.055C913.742 516.961 917.766 527.742 917.766 540.398C917.766 548.992 915.812 556.922 911.906 564.188C908.078 571.453 902.336 577.742 894.68 583.055C887.023 588.289 877.492 592.391 866.086 595.359C854.758 598.25 841.594 599.695 826.594 599.695C819.406 599.695 812.453 599.305 805.734 598.523C799.094 597.82 792.57 596.727 786.164 595.242C779.836 593.758 773.586 591.883 767.414 589.617C761.242 587.352 755.07 584.695 748.898 581.648L762.609 558.328ZM944.484 403.523H1008.12V499.5C1016.87 493.172 1025.81 488.133 1034.95 484.383C1044.17 480.555 1053.82 478.641 1063.9 478.641C1069.29 478.641 1074.29 479.539 1078.9 481.336C1083.59 483.133 1087.65 485.906 1091.09 489.656C1094.52 493.406 1097.22 498.25 1099.17 504.188C1101.12 510.047 1102.1 517.078 1102.1 525.281V597H1038.47V521.297C1038.47 517.234 1037.57 514.266 1035.77 512.391C1034.05 510.516 1031.2 509.578 1027.22 509.578C1025.42 509.578 1023.62 509.852 1021.83 510.398C1020.11 510.945 1018.43 511.648 1016.79 512.508C1015.15 513.367 1013.59 514.344 1012.1 515.438C1010.62 516.531 1009.29 517.625 1008.12 518.719V597H944.484V403.523ZM1126.24 538.992C1126.24 529.773 1128.12 521.453 1131.87 514.031C1135.7 506.609 1141.16 500.281 1148.27 495.047C1155.46 489.812 1164.21 485.789 1174.52 482.977C1184.84 480.086 1196.55 478.641 1209.68 478.641C1222.8 478.641 1234.52 480.086 1244.84 482.977C1255.15 485.789 1263.86 489.812 1270.97 495.047C1278.16 500.281 1283.62 506.609 1287.38 514.031C1291.2 521.453 1293.12 529.773 1293.12 538.992C1293.12 548.133 1291.2 556.414 1287.38 563.836C1283.62 571.258 1278.16 577.586 1270.97 582.82C1263.86 588.055 1255.15 592.117 1244.84 595.008C1234.52 597.82 1222.8 599.227 1209.68 599.227C1196.55 599.227 1184.84 597.82 1174.52 595.008C1164.21 592.117 1155.46 588.055 1148.27 582.82C1141.16 577.586 1135.7 571.258 1131.87 563.836C1128.12 556.414 1126.24 548.133 1126.24 538.992ZM1209.68 577.781C1212.57 577.781 1215.15 577.195 1217.41 576.023C1219.68 574.852 1221.55 572.82 1223.04 569.93C1224.52 566.961 1225.66 562.977 1226.44 557.977C1227.22 552.977 1227.61 546.648 1227.61 538.992C1227.61 531.258 1227.22 524.891 1226.44 519.891C1225.66 514.891 1224.52 510.945 1223.04 508.055C1221.55 505.086 1219.68 503.016 1217.41 501.844C1215.15 500.672 1212.57 500.086 1209.68 500.086C1206.71 500.086 1204.09 500.672 1201.83 501.844C1199.64 503.016 1197.8 505.086 1196.32 508.055C1194.84 510.945 1193.7 514.891 1192.92 519.891C1192.14 524.891 1191.75 531.258 1191.75 538.992C1191.75 546.648 1192.14 552.977 1192.92 557.977C1193.7 562.977 1194.84 566.961 1196.32 569.93C1197.8 572.82 1199.64 574.852 1201.83 576.023C1204.09 577.195 1206.71 577.781 1209.68 577.781ZM1318.31 480.867H1376.91L1381.83 496.102C1384.02 493.992 1386.63 491.883 1389.68 489.773C1392.73 487.664 1396.09 485.789 1399.76 484.148C1403.43 482.508 1407.38 481.18 1411.59 480.164C1415.89 479.148 1420.34 478.641 1424.95 478.641C1433.78 478.641 1442.06 479.93 1449.8 482.508C1457.53 485.086 1464.29 488.914 1470.07 493.992C1475.85 499.07 1480.38 505.359 1483.66 512.859C1487.02 520.359 1488.7 529.07 1488.7 538.992C1488.7 548.133 1487.1 556.414 1483.9 563.836C1480.77 571.18 1476.24 577.508 1470.3 582.82C1464.37 588.055 1457.14 592.117 1448.62 595.008C1440.19 597.82 1430.7 599.227 1420.15 599.227C1412.1 599.227 1404.84 598.289 1398.35 596.414C1391.95 594.461 1386.48 591.766 1381.95 588.328V655.008H1318.31V480.867ZM1381.95 572.977C1383.9 574.773 1386.09 576.18 1388.51 577.195C1390.93 578.211 1393.35 578.719 1395.77 578.719C1399.68 578.719 1403.27 578.016 1406.55 576.609C1409.91 575.125 1412.8 572.859 1415.23 569.812C1417.73 566.766 1419.64 562.898 1420.97 558.211C1422.38 553.445 1423.08 547.742 1423.08 541.102C1423.08 534.383 1422.41 528.641 1421.09 523.875C1419.84 519.109 1418.08 515.242 1415.81 512.273C1413.55 509.227 1410.85 507 1407.73 505.594C1404.6 504.188 1401.16 503.484 1397.41 503.484C1394.45 503.484 1391.63 504.031 1388.98 505.125C1386.32 506.141 1383.98 507.547 1381.95 509.344V572.977Z" fill="#B92038"/>
<path d="M1619.2 347.262H1651.02V395.25C1655.39 392.086 1659.87 389.566 1664.44 387.691C1669.05 385.777 1673.87 384.82 1678.91 384.82C1681.61 384.82 1684.11 385.27 1686.41 386.168C1688.75 387.066 1690.79 388.453 1692.5 390.328C1694.22 392.203 1695.57 394.625 1696.55 397.594C1697.52 400.523 1698.01 404.039 1698.01 408.141V444H1666.2V406.148C1666.2 404.117 1665.75 402.633 1664.85 401.695C1663.99 400.758 1662.56 400.289 1660.57 400.289C1659.67 400.289 1658.77 400.426 1657.88 400.699C1657.02 400.973 1656.18 401.324 1655.36 401.754C1654.54 402.184 1653.75 402.672 1653.01 403.219C1652.27 403.766 1651.61 404.312 1651.02 404.859V444H1619.2V347.262ZM1722.08 425.719C1722.08 422.906 1722.71 420.289 1723.96 417.867C1725.21 415.445 1727 413.336 1729.35 411.539C1731.69 409.742 1734.52 408.336 1737.84 407.32C1741.16 406.266 1744.88 405.738 1748.98 405.738C1753.08 405.738 1756.91 406.227 1760.46 407.203C1764.05 408.141 1767.06 409.352 1769.48 410.836V410.367C1769.48 407.633 1769.17 405.309 1768.55 403.395C1767.96 401.48 1767.04 399.918 1765.79 398.707C1764.54 397.496 1762.94 396.617 1760.99 396.07C1759.07 395.523 1756.81 395.25 1754.19 395.25C1751.81 395.25 1749.35 395.465 1746.81 395.895C1744.27 396.285 1741.93 396.871 1739.78 397.652L1735.5 389.742C1739.76 387.984 1744.15 386.734 1748.68 385.992C1753.25 385.211 1757.96 384.82 1762.8 384.82C1769.02 384.82 1774.5 385.426 1779.27 386.637C1784.07 387.809 1788.1 389.586 1791.34 391.969C1794.62 394.312 1797.1 397.281 1798.78 400.875C1800.46 404.43 1801.3 408.609 1801.3 413.414V444H1771.59L1769.6 438.375C1768.43 439.273 1767.04 440.133 1765.44 440.953C1763.84 441.773 1762.08 442.496 1760.17 443.121C1758.25 443.746 1756.22 444.234 1754.07 444.586C1751.93 444.938 1749.68 445.113 1747.34 445.113C1743.51 445.113 1740.03 444.625 1736.91 443.648C1733.82 442.633 1731.18 441.266 1729 439.547C1726.81 437.828 1725.11 435.797 1723.9 433.453C1722.69 431.07 1722.08 428.492 1722.08 425.719ZM1754.89 424.488C1754.89 426.598 1755.58 428.316 1756.95 429.645C1758.31 430.934 1760.15 431.578 1762.45 431.578C1763.7 431.578 1764.93 431.383 1766.14 430.992C1767.36 430.562 1768.47 429.938 1769.48 429.117V419.215C1767.53 418.043 1765.38 417.457 1763.04 417.457C1760.38 417.457 1758.35 418.121 1756.95 419.449C1755.58 420.738 1754.89 422.418 1754.89 424.488ZM1829.18 385.934H1857.25L1860.06 394.371C1864.2 391.207 1868.4 388.824 1872.66 387.223C1876.95 385.621 1881.46 384.82 1886.19 384.82C1888.89 384.82 1891.39 385.27 1893.69 386.168C1896.04 387.066 1898.07 388.453 1899.79 390.328C1901.5 392.203 1902.85 394.625 1903.83 397.594C1904.8 400.523 1905.29 404.039 1905.29 408.141V444H1873.48V406.148C1873.48 404.117 1873.03 402.633 1872.13 401.695C1871.23 400.758 1869.92 400.289 1868.2 400.289C1867.07 400.289 1865.82 400.523 1864.45 400.992C1863.09 401.461 1861.93 402.203 1861 403.219V444H1829.18V385.934ZM1932.12 438.785C1932.12 435.816 1932.86 432.945 1934.34 430.172C1935.83 427.398 1937.9 424.898 1940.55 422.672C1936.88 420.68 1934.09 418.297 1932.18 415.523C1930.3 412.711 1929.36 409.547 1929.36 406.031C1929.36 402.711 1930.22 399.742 1931.94 397.125C1933.7 394.469 1936.22 392.242 1939.5 390.445C1942.78 388.609 1946.8 387.223 1951.57 386.285C1956.34 385.309 1961.75 384.82 1967.8 384.82C1969.87 384.82 1971.88 384.879 1973.84 384.996V377.438C1973.84 374.742 1974.19 372.262 1974.89 369.996C1975.63 367.73 1976.73 365.777 1978.17 364.137C1979.62 362.496 1981.43 361.227 1983.62 360.328C1985.85 359.391 1988.45 358.922 1991.41 358.922C1994.15 358.922 1996.59 359.312 1998.74 360.094C2000.93 360.836 2002.76 361.871 2004.25 363.199C2005.77 364.488 2006.92 366.012 2007.7 367.77C2008.48 369.527 2008.88 371.383 2008.88 373.336C2008.88 375.25 2008.52 376.988 2007.82 378.551C2007.16 380.113 2006.28 381.461 2005.18 382.594C2004.09 383.727 2002.88 384.605 2001.55 385.23C2000.26 385.855 1998.97 386.168 1997.68 386.168L1983.97 367.711L1983.91 367.77L1983.8 386.227C1991.02 387.633 1996.57 390.035 2000.44 393.434C2004.3 396.793 2006.24 400.992 2006.24 406.031C2006.24 409.352 2005.36 412.379 2003.6 415.113C2001.88 417.809 1999.38 420.133 1996.1 422.086C1992.82 424 1988.8 425.484 1984.03 426.539C1979.27 427.594 1973.86 428.121 1967.8 428.121C1963.54 428.121 1959.6 427.867 1955.96 427.359C1952.37 426.852 1949.11 426.09 1946.18 425.074C1945.87 425.816 1945.71 426.676 1945.71 427.652C1945.71 428.668 1945.96 429.586 1946.47 430.406C1947.02 431.188 1948.07 431.852 1949.64 432.398C1951.24 432.945 1953.46 433.355 1956.32 433.629C1959.21 433.902 1962.98 434.039 1967.62 434.039H1982.86C1987.47 434.039 1991.41 434.508 1994.7 435.445C1998.02 436.344 2000.73 437.594 2002.84 439.195C2004.99 440.797 2006.55 442.652 2007.53 444.762C2008.54 446.91 2009.05 449.176 2009.05 451.559C2009.05 454.684 2008.23 457.555 2006.59 460.172C2004.95 462.789 2002.45 465.035 1999.09 466.91C1995.77 468.824 1991.57 470.309 1986.49 471.363C1981.41 472.418 1975.44 472.945 1968.56 472.945C1964.66 472.945 1960.87 472.77 1957.2 472.418C1953.56 472.105 1950.14 471.637 1946.94 471.012C1943.74 470.426 1940.79 469.703 1938.09 468.844C1935.4 468.023 1933.04 467.125 1931 466.148L1935.75 457.301C1938.21 458.434 1940.67 459.371 1943.13 460.113C1945.59 460.895 1948.09 461.52 1950.63 461.988C1953.17 462.457 1955.77 462.789 1958.43 462.984C1961.12 463.18 1963.91 463.277 1966.8 463.277C1970.09 463.277 1972.72 463.141 1974.71 462.867C1976.75 462.594 1978.29 462.242 1979.34 461.812C1980.44 461.383 1981.16 460.875 1981.51 460.289C1981.9 459.742 1982.1 459.176 1982.1 458.59C1982.1 457.574 1981.53 456.734 1980.4 456.07C1979.3 455.445 1977.55 455.113 1975.12 455.074L1956.79 454.898C1952.61 454.859 1948.97 454.43 1945.89 453.609C1942.8 452.828 1940.22 451.715 1938.15 450.27C1936.12 448.863 1934.6 447.184 1933.58 445.23C1932.61 443.277 1932.12 441.129 1932.12 438.785ZM1967.8 417.457C1968.7 417.457 1969.5 417.281 1970.2 416.93C1970.91 416.578 1971.49 415.973 1971.96 415.113C1972.47 414.254 1972.84 413.102 1973.07 411.656C1973.35 410.172 1973.48 408.316 1973.48 406.09C1973.48 404.02 1973.37 402.301 1973.13 400.934C1972.9 399.566 1972.55 398.492 1972.08 397.711C1971.61 396.891 1971 396.324 1970.26 396.012C1969.56 395.699 1968.74 395.543 1967.8 395.543C1966.86 395.543 1966.02 395.699 1965.28 396.012C1964.58 396.324 1963.99 396.891 1963.52 397.711C1963.05 398.492 1962.7 399.566 1962.47 400.934C1962.23 402.301 1962.12 404.039 1962.12 406.148C1962.12 408.336 1962.23 410.172 1962.47 411.656C1962.74 413.102 1963.11 414.254 1963.58 415.113C1964.09 415.973 1964.7 416.578 1965.4 416.93C1966.1 417.281 1966.9 417.457 1967.8 417.457ZM2034.53 429C2036.13 429.859 2037.67 430.641 2039.16 431.344C2040.64 432.047 2042.12 432.652 2043.61 433.16C2045.09 433.629 2046.58 434 2048.06 434.273C2049.59 434.547 2051.17 434.684 2052.81 434.684C2055.39 434.684 2057.24 434.371 2058.38 433.746C2059.51 433.121 2060.07 432.301 2060.07 431.285C2060.07 430.66 2059.88 430.133 2059.49 429.703C2059.14 429.273 2058.63 428.902 2057.96 428.59C2057.3 428.238 2056.52 427.926 2055.62 427.652C2054.72 427.34 2053.73 427.027 2052.63 426.715L2049.29 425.719C2046.01 424.742 2043.18 423.609 2040.8 422.32C2038.41 420.992 2036.46 419.508 2034.94 417.867C2033.41 416.227 2032.28 414.469 2031.54 412.594C2030.8 410.68 2030.43 408.648 2030.43 406.5C2030.43 403.727 2031.05 401.051 2032.3 398.473C2033.55 395.855 2035.48 393.531 2038.1 391.5C2040.72 389.469 2044.06 387.848 2048.12 386.637C2052.22 385.426 2057.09 384.82 2062.71 384.82C2064.82 384.82 2067.01 384.957 2069.27 385.23C2071.58 385.465 2073.8 385.777 2075.95 386.168C2078.1 386.559 2080.11 387.008 2081.99 387.516C2083.86 387.984 2085.45 388.473 2086.73 388.98L2081.58 398.414C2080.72 397.945 2079.7 397.535 2078.53 397.184C2077.4 396.793 2076.23 396.461 2075.02 396.188C2073.8 395.875 2072.63 395.641 2071.5 395.484C2070.41 395.328 2069.47 395.25 2068.69 395.25C2066.42 395.25 2064.8 395.562 2063.82 396.188C2062.85 396.812 2062.36 397.574 2062.36 398.473C2062.36 398.824 2062.46 399.195 2062.65 399.586C2062.85 399.977 2063.24 400.387 2063.82 400.816C2064.41 401.246 2065.23 401.695 2066.29 402.164C2067.34 402.633 2068.73 403.121 2070.45 403.629L2073.73 404.625C2077.36 405.719 2080.37 406.949 2082.75 408.316C2085.17 409.684 2087.11 411.168 2088.55 412.77C2090.04 414.332 2091.07 415.992 2091.66 417.75C2092.28 419.508 2092.59 421.305 2092.59 423.141C2092.59 425.953 2091.91 428.688 2090.54 431.344C2089.18 434 2086.99 436.344 2083.98 438.375C2081.01 440.406 2077.16 442.047 2072.44 443.297C2067.71 444.508 2061.99 445.113 2055.27 445.113C2052.38 445.113 2049.72 444.996 2047.3 444.762C2044.88 444.527 2042.59 444.176 2040.45 443.707C2038.3 443.238 2036.23 442.672 2034.23 442.008C2032.28 441.305 2030.35 440.523 2028.43 439.664L2034.53 429ZM2143.38 395.543H2117.13V385.934H2182.82L2154.46 434.391H2180.53V444.059H2112.8L2143.38 395.543ZM2203.37 414.645C2203.37 411.285 2203.9 408.219 2204.95 405.445C2206.01 402.672 2207.45 400.191 2209.29 398.004C2211.16 395.777 2213.37 393.844 2215.91 392.203C2218.45 390.562 2221.2 389.195 2224.17 388.102C2227.14 387.008 2230.25 386.188 2233.49 385.641C2236.73 385.094 2240.01 384.82 2243.33 384.82C2247.71 384.82 2251.67 385.27 2255.23 386.168C2258.82 387.027 2262 388.219 2264.78 389.742C2267.59 391.266 2270.01 393.043 2272.04 395.074C2274.11 397.105 2275.81 399.273 2277.14 401.578C2278.51 403.844 2279.5 406.188 2280.13 408.609C2280.79 411.031 2281.12 413.395 2281.12 415.699L2236.83 421.031C2237.69 425.367 2239.41 428.727 2241.98 431.109C2244.56 433.492 2248.18 434.684 2252.82 434.684C2255.36 434.684 2257.73 434.371 2259.91 433.746C2262.14 433.121 2263.88 432.359 2265.13 431.461L2269.82 439.664C2268.37 440.406 2266.79 441.109 2265.07 441.773C2263.39 442.438 2261.52 443.023 2259.45 443.531C2257.41 444 2255.15 444.371 2252.65 444.645C2250.19 444.957 2247.47 445.113 2244.5 445.113C2237.39 445.113 2231.26 444.293 2226.11 442.652C2220.95 440.973 2216.67 438.746 2213.27 435.973C2209.91 433.16 2207.41 429.918 2205.77 426.246C2204.17 422.574 2203.37 418.707 2203.37 414.645ZM2252.71 409.723C2252.71 404.645 2252.06 400.953 2250.77 398.648C2249.52 396.344 2247.65 395.191 2245.15 395.191C2243.86 395.191 2242.67 395.504 2241.57 396.129C2240.48 396.754 2239.54 397.73 2238.76 399.059C2237.98 400.387 2237.36 402.105 2236.89 404.215C2236.42 406.285 2236.16 408.805 2236.12 411.773L2252.71 409.723ZM2304.14 385.934H2332.21L2335.02 394.371C2337.25 392.73 2339.34 391.324 2341.29 390.152C2343.28 388.941 2345.2 387.945 2347.03 387.164C2348.91 386.344 2350.7 385.758 2352.42 385.406C2354.18 385.016 2355.92 384.82 2357.64 384.82C2360.14 384.82 2362.38 385.172 2364.38 385.875C2366.41 386.578 2368.12 387.574 2369.53 388.863C2370.98 390.152 2372.07 391.695 2372.81 393.492C2373.59 395.25 2373.98 397.203 2373.98 399.352C2373.98 401.5 2373.52 403.473 2372.58 405.27C2371.68 407.066 2370.35 408.629 2368.59 409.957C2366.84 411.246 2364.67 412.262 2362.09 413.004C2359.55 413.707 2356.64 414.059 2353.36 414.059L2343.05 400.289C2341.91 400.289 2340.68 400.523 2339.36 400.992C2338.03 401.461 2336.89 402.203 2335.96 403.219V444H2304.14V385.934ZM2395.12 347.32H2427V392.906C2428.09 391.852 2429.38 390.855 2430.87 389.918C2432.39 388.941 2434.05 388.082 2435.85 387.34C2437.68 386.559 2439.64 385.953 2441.71 385.523C2443.82 385.055 2446.02 384.82 2448.33 384.82C2452.74 384.82 2456.88 385.465 2460.75 386.754C2464.62 388.043 2468 389.957 2470.89 392.496C2473.78 395.035 2476.04 398.18 2477.68 401.93C2479.36 405.68 2480.2 410.035 2480.2 414.996C2480.2 419.566 2479.4 423.707 2477.8 427.418C2476.24 431.09 2473.97 434.254 2471 436.91C2468.04 439.527 2464.42 441.559 2460.16 443.004C2455.95 444.41 2451.2 445.113 2445.93 445.113C2441.67 445.113 2437.84 444.586 2434.44 443.531C2431.08 442.438 2428.25 441.012 2425.95 439.254L2424.3 444H2395.18L2395.12 347.32ZM2427 432.34C2427.94 433.121 2428.99 433.746 2430.16 434.215C2431.38 434.645 2432.57 434.859 2433.74 434.859C2435.69 434.859 2437.49 434.508 2439.13 433.805C2440.81 433.062 2442.25 431.93 2443.46 430.406C2444.71 428.883 2445.67 426.949 2446.34 424.605C2447.04 422.223 2447.39 419.371 2447.39 416.051C2447.39 412.691 2447.06 409.82 2446.39 407.438C2445.77 405.055 2444.89 403.121 2443.76 401.637C2442.62 400.113 2441.28 399 2439.71 398.297C2438.15 397.594 2436.43 397.242 2434.56 397.242C2433.11 397.242 2431.75 397.496 2430.46 398.004C2429.17 398.512 2428.02 399.156 2427 399.938V432.34ZM2501.05 414.996C2501.05 410.387 2501.99 406.227 2503.86 402.516C2505.78 398.805 2508.51 395.641 2512.07 393.023C2515.66 390.406 2520.04 388.395 2525.19 386.988C2530.35 385.543 2536.21 384.82 2542.77 384.82C2549.33 384.82 2555.19 385.543 2560.35 386.988C2565.5 388.395 2569.86 390.406 2573.41 393.023C2577.01 395.641 2579.74 398.805 2581.62 402.516C2583.53 406.227 2584.49 410.387 2584.49 414.996C2584.49 419.566 2583.53 423.707 2581.62 427.418C2579.74 431.129 2577.01 434.293 2573.41 436.91C2569.86 439.527 2565.5 441.559 2560.35 443.004C2555.19 444.41 2549.33 445.113 2542.77 445.113C2536.21 445.113 2530.35 444.41 2525.19 443.004C2520.04 441.559 2515.66 439.527 2512.07 436.91C2508.51 434.293 2505.78 431.129 2503.86 427.418C2501.99 423.707 2501.05 419.566 2501.05 414.996ZM2542.77 434.391C2544.21 434.391 2545.5 434.098 2546.64 433.512C2547.77 432.926 2548.71 431.91 2549.45 430.465C2550.19 428.98 2550.76 426.988 2551.15 424.488C2551.54 421.988 2551.73 418.824 2551.73 414.996C2551.73 411.129 2551.54 407.945 2551.15 405.445C2550.76 402.945 2550.19 400.973 2549.45 399.527C2548.71 398.043 2547.77 397.008 2546.64 396.422C2545.5 395.836 2544.21 395.543 2542.77 395.543C2541.29 395.543 2539.98 395.836 2538.84 396.422C2537.75 397.008 2536.83 398.043 2536.09 399.527C2535.35 400.973 2534.78 402.945 2534.39 405.445C2534 407.945 2533.8 411.129 2533.8 414.996C2533.8 418.824 2534 421.988 2534.39 424.488C2534.78 426.988 2535.35 428.98 2536.09 430.465C2536.83 431.91 2537.75 432.926 2538.84 433.512C2539.98 434.098 2541.29 434.391 2542.77 434.391ZM2609.09 347.262H2640.9V444H2609.09V347.262ZM2672.71 395.602H2666.14V385.934H2672.71V366.598H2704.52V385.934H2719.82L2713.84 395.602H2704.52V421.91C2704.52 425.895 2705.4 428.961 2707.16 431.109C2708.96 433.258 2711.52 434.332 2714.84 434.332L2711.2 442.359C2709.17 443.219 2707 443.883 2704.7 444.352C2702.43 444.859 2699.8 445.113 2696.79 445.113C2692.57 445.113 2688.94 444.586 2685.89 443.531C2682.84 442.438 2680.34 440.895 2678.39 438.902C2676.44 436.91 2674.99 434.469 2674.05 431.578C2673.16 428.688 2672.71 425.426 2672.71 421.793V395.602ZM1633.32 521.648C1640.04 519.188 1646.04 516.492 1651.31 513.562C1656.62 510.594 1661.55 507.43 1666.08 504.07L1675.1 515.027C1672.84 516.551 1670.18 518.035 1667.13 519.48C1664.12 520.926 1660.92 522.234 1657.52 523.406C1654.16 524.578 1650.73 525.594 1647.21 526.453C1643.7 527.312 1640.34 527.938 1637.13 528.328L1633.32 521.648ZM1615.39 567.645C1615.39 564.285 1615.92 561.219 1616.98 558.445C1618.03 555.672 1619.48 553.191 1621.31 551.004C1623.19 548.777 1625.39 546.844 1627.93 545.203C1630.47 543.562 1633.23 542.195 1636.2 541.102C1639.16 540.008 1642.27 539.188 1645.51 538.641C1648.75 538.094 1652.04 537.82 1655.36 537.82C1659.73 537.82 1663.7 538.27 1667.25 539.168C1670.84 540.027 1674.03 541.219 1676.8 542.742C1679.61 544.266 1682.04 546.043 1684.07 548.074C1686.14 550.105 1687.84 552.273 1689.16 554.578C1690.53 556.844 1691.53 559.188 1692.15 561.609C1692.82 564.031 1693.15 566.395 1693.15 568.699L1648.85 574.031C1649.71 578.367 1651.43 581.727 1654.01 584.109C1656.59 586.492 1660.2 587.684 1664.85 587.684C1667.39 587.684 1669.75 587.371 1671.94 586.746C1674.16 586.121 1675.9 585.359 1677.15 584.461L1681.84 592.664C1680.39 593.406 1678.81 594.109 1677.09 594.773C1675.41 595.438 1673.54 596.023 1671.47 596.531C1669.44 597 1667.17 597.371 1664.67 597.645C1662.21 597.957 1659.5 598.113 1656.53 598.113C1649.42 598.113 1643.29 597.293 1638.13 595.652C1632.97 593.973 1628.7 591.746 1625.3 588.973C1621.94 586.16 1619.44 582.918 1617.8 579.246C1616.2 575.574 1615.39 571.707 1615.39 567.645ZM1664.73 562.723C1664.73 557.645 1664.09 553.953 1662.8 551.648C1661.55 549.344 1659.67 548.191 1657.17 548.191C1655.88 548.191 1654.69 548.504 1653.6 549.129C1652.5 549.754 1651.57 550.73 1650.79 552.059C1650 553.387 1649.38 555.105 1648.91 557.215C1648.44 559.285 1648.19 561.805 1648.15 564.773L1664.73 562.723ZM1713.65 582C1715.25 582.859 1716.79 583.641 1718.28 584.344C1719.76 585.047 1721.25 585.652 1722.73 586.16C1724.22 586.629 1725.7 587 1727.18 587.273C1728.71 587.547 1730.29 587.684 1731.93 587.684C1734.51 587.684 1736.36 587.371 1737.5 586.746C1738.63 586.121 1739.2 585.301 1739.2 584.285C1739.2 583.66 1739 583.133 1738.61 582.703C1738.26 582.273 1737.75 581.902 1737.09 581.59C1736.42 581.238 1735.64 580.926 1734.74 580.652C1733.84 580.34 1732.85 580.027 1731.75 579.715L1728.41 578.719C1725.13 577.742 1722.3 576.609 1719.92 575.32C1717.54 573.992 1715.58 572.508 1714.06 570.867C1712.54 569.227 1711.4 567.469 1710.66 565.594C1709.92 563.68 1709.55 561.648 1709.55 559.5C1709.55 556.727 1710.17 554.051 1711.42 551.473C1712.67 548.855 1714.61 546.531 1717.22 544.5C1719.84 542.469 1723.18 540.848 1727.24 539.637C1731.34 538.426 1736.21 537.82 1741.83 537.82C1743.94 537.82 1746.13 537.957 1748.4 538.23C1750.7 538.465 1752.93 538.777 1755.07 539.168C1757.22 539.559 1759.24 540.008 1761.11 540.516C1762.99 540.984 1764.57 541.473 1765.86 541.98L1760.7 551.414C1759.84 550.945 1758.82 550.535 1757.65 550.184C1756.52 549.793 1755.35 549.461 1754.14 549.188C1752.93 548.875 1751.75 548.641 1750.62 548.484C1749.53 548.328 1748.59 548.25 1747.81 548.25C1745.54 548.25 1743.92 548.562 1742.95 549.188C1741.97 549.812 1741.48 550.574 1741.48 551.473C1741.48 551.824 1741.58 552.195 1741.77 552.586C1741.97 552.977 1742.36 553.387 1742.95 553.816C1743.53 554.246 1744.35 554.695 1745.41 555.164C1746.46 555.633 1747.85 556.121 1749.57 556.629L1752.85 557.625C1756.48 558.719 1759.49 559.949 1761.87 561.316C1764.29 562.684 1766.23 564.168 1767.67 565.77C1769.16 567.332 1770.19 568.992 1770.78 570.75C1771.4 572.508 1771.72 574.305 1771.72 576.141C1771.72 578.953 1771.03 581.688 1769.66 584.344C1768.3 587 1766.11 589.344 1763.1 591.375C1760.13 593.406 1756.29 595.047 1751.56 596.297C1746.83 597.508 1741.11 598.113 1734.39 598.113C1731.5 598.113 1728.84 597.996 1726.42 597.762C1724 597.527 1721.72 597.176 1719.57 596.707C1717.42 596.238 1715.35 595.672 1713.36 595.008C1711.4 594.305 1709.47 593.523 1707.56 592.664L1713.65 582ZM1826.84 538.934H1860.12L1873.13 576.785L1881.62 553.113L1876.23 538.934H1909.51L1921.94 575.086L1934.24 538.934H1947.13L1926.62 597H1914.44V596.941H1898.44L1888.07 569.93L1877.99 597H1865.8V596.941H1849.05L1826.84 538.934ZM1970.46 567.645C1970.46 564.285 1970.99 561.219 1972.05 558.445C1973.1 555.672 1974.55 553.191 1976.38 551.004C1978.26 548.777 1980.46 546.844 1983 545.203C1985.54 543.562 1988.3 542.195 1991.26 541.102C1994.23 540.008 1997.34 539.188 2000.58 538.641C2003.82 538.094 2007.1 537.82 2010.42 537.82C2014.8 537.82 2018.76 538.27 2022.32 539.168C2025.91 540.027 2029.1 541.219 2031.87 542.742C2034.68 544.266 2037.1 546.043 2039.14 548.074C2041.21 550.105 2042.9 552.273 2044.23 554.578C2045.6 556.844 2046.6 559.188 2047.22 561.609C2047.89 564.031 2048.22 566.395 2048.22 568.699L2003.92 574.031C2004.78 578.367 2006.5 581.727 2009.08 584.109C2011.65 586.492 2015.27 587.684 2019.92 587.684C2022.46 587.684 2024.82 587.371 2027.01 586.746C2029.23 586.121 2030.97 585.359 2032.22 584.461L2036.91 592.664C2035.46 593.406 2033.88 594.109 2032.16 594.773C2030.48 595.438 2028.61 596.023 2026.54 596.531C2024.51 597 2022.24 597.371 2019.74 597.645C2017.28 597.957 2014.56 598.113 2011.6 598.113C2004.49 598.113 1998.35 597.293 1993.2 595.652C1988.04 593.973 1983.76 591.746 1980.37 588.973C1977.01 586.16 1974.51 582.918 1972.87 579.246C1971.26 575.574 1970.46 571.707 1970.46 567.645ZM2019.8 562.723C2019.8 557.645 2019.15 553.953 2017.87 551.648C2016.62 549.344 2014.74 548.191 2012.24 548.191C2010.95 548.191 2009.76 548.504 2008.67 549.129C2007.57 549.754 2006.64 550.73 2005.85 552.059C2005.07 553.387 2004.45 555.105 2003.98 557.215C2003.51 559.285 2003.26 561.805 2003.22 564.773L2019.8 562.723ZM2077.23 500.32H2109.11V545.906C2110.2 544.852 2111.49 543.855 2112.98 542.918C2114.5 541.941 2116.16 541.082 2117.96 540.34C2119.79 539.559 2121.74 538.953 2123.81 538.523C2125.92 538.055 2128.13 537.82 2130.44 537.82C2134.85 537.82 2138.99 538.465 2142.86 539.754C2146.73 541.043 2150.1 542.957 2152.99 545.496C2155.89 548.035 2158.15 551.18 2159.79 554.93C2161.47 558.68 2162.31 563.035 2162.31 567.996C2162.31 572.566 2161.51 576.707 2159.91 580.418C2158.35 584.09 2156.08 587.254 2153.11 589.91C2150.14 592.527 2146.53 594.559 2142.27 596.004C2138.05 597.41 2133.31 598.113 2128.03 598.113C2123.78 598.113 2119.95 597.586 2116.55 596.531C2113.19 595.438 2110.36 594.012 2108.05 592.254L2106.41 597H2077.29L2077.23 500.32ZM2109.11 585.34C2110.05 586.121 2111.1 586.746 2112.27 587.215C2113.48 587.645 2114.67 587.859 2115.85 587.859C2117.8 587.859 2119.6 587.508 2121.24 586.805C2122.92 586.062 2124.36 584.93 2125.57 583.406C2126.82 581.883 2127.78 579.949 2128.44 577.605C2129.15 575.223 2129.5 572.371 2129.5 569.051C2129.5 565.691 2129.17 562.82 2128.5 560.438C2127.88 558.055 2127 556.121 2125.87 554.637C2124.73 553.113 2123.39 552 2121.82 551.297C2120.26 550.594 2118.54 550.242 2116.67 550.242C2115.22 550.242 2113.85 550.496 2112.56 551.004C2111.28 551.512 2110.12 552.156 2109.11 552.938V585.34ZM2209.37 521.648C2216.09 519.188 2222.09 516.492 2227.36 513.562C2232.67 510.594 2237.6 507.43 2242.13 504.07L2251.15 515.027C2248.89 516.551 2246.23 518.035 2243.18 519.48C2240.17 520.926 2236.97 522.234 2233.57 523.406C2230.21 524.578 2226.78 525.594 2223.26 526.453C2219.74 527.312 2216.39 527.938 2213.18 528.328L2209.37 521.648ZM2189.16 578.719C2189.16 575.906 2189.78 573.289 2191.03 570.867C2192.28 568.445 2194.08 566.336 2196.42 564.539C2198.77 562.742 2201.6 561.336 2204.92 560.32C2208.24 559.266 2211.95 558.738 2216.05 558.738C2220.15 558.738 2223.98 559.227 2227.54 560.203C2231.13 561.141 2234.14 562.352 2236.56 563.836V563.367C2236.56 560.633 2236.25 558.309 2235.62 556.395C2235.04 554.48 2234.12 552.918 2232.87 551.707C2231.62 550.496 2230.02 549.617 2228.06 549.07C2226.15 548.523 2223.89 548.25 2221.27 548.25C2218.89 548.25 2216.42 548.465 2213.89 548.895C2211.35 549.285 2209 549.871 2206.85 550.652L2202.58 542.742C2206.83 540.984 2211.23 539.734 2215.76 538.992C2220.33 538.211 2225.04 537.82 2229.88 537.82C2236.09 537.82 2241.58 538.426 2246.35 539.637C2251.15 540.809 2255.17 542.586 2258.42 544.969C2261.7 547.312 2264.18 550.281 2265.86 553.875C2267.54 557.43 2268.38 561.609 2268.38 566.414V597H2238.67L2236.68 591.375C2235.51 592.273 2234.12 593.133 2232.52 593.953C2230.92 594.773 2229.16 595.496 2227.24 596.121C2225.33 596.746 2223.3 597.234 2221.15 597.586C2219 597.938 2216.76 598.113 2214.41 598.113C2210.58 598.113 2207.11 597.625 2203.98 596.648C2200.9 595.633 2198.26 594.266 2196.07 592.547C2193.89 590.828 2192.19 588.797 2190.97 586.453C2189.76 584.07 2189.16 581.492 2189.16 578.719ZM2221.97 577.488C2221.97 579.598 2222.65 581.316 2224.02 582.645C2225.39 583.934 2227.22 584.578 2229.53 584.578C2230.78 584.578 2232.01 584.383 2233.22 583.992C2234.43 583.562 2235.55 582.938 2236.56 582.117V572.215C2234.61 571.043 2232.46 570.457 2230.12 570.457C2227.46 570.457 2225.43 571.121 2224.02 572.449C2222.65 573.738 2221.97 575.418 2221.97 577.488ZM2302.26 538.934H2330.32L2333.14 547.371C2335.36 545.73 2337.45 544.324 2339.4 543.152C2341.4 541.941 2343.31 540.945 2345.15 540.164C2347.02 539.344 2348.82 538.758 2350.54 538.406C2352.3 538.016 2354.03 537.82 2355.75 537.82C2358.25 537.82 2360.5 538.172 2362.49 538.875C2364.52 539.578 2366.24 540.574 2367.65 541.863C2369.09 543.152 2370.19 544.695 2370.93 546.492C2371.71 548.25 2372.1 550.203 2372.1 552.352C2372.1 554.5 2371.63 556.473 2370.69 558.27C2369.8 560.066 2368.47 561.629 2366.71 562.957C2364.95 564.246 2362.78 565.262 2360.21 566.004C2357.67 566.707 2354.76 567.059 2351.47 567.059L2341.16 553.289C2340.03 553.289 2338.8 553.523 2337.47 553.992C2336.14 554.461 2335.01 555.203 2334.07 556.219V597H2302.26V538.934ZM2398.65 538.875H2430.47V574.383C2430.47 575.945 2430.61 577.254 2430.88 578.309C2431.15 579.363 2431.56 580.223 2432.11 580.887C2432.7 581.512 2433.4 581.98 2434.22 582.293C2435.04 582.566 2436.02 582.703 2437.15 582.703C2438.56 582.703 2439.79 582.488 2440.84 582.059C2441.9 581.59 2442.97 580.789 2444.06 579.656V538.875H2475.88V596.941H2447.81L2445 588.504C2441.45 591.98 2437.6 594.461 2433.46 595.945C2429.32 597.391 2425.1 598.113 2420.8 598.113C2413.73 598.113 2408.26 596.219 2404.4 592.43C2400.57 588.602 2398.65 582.723 2398.65 574.793V538.875ZM2510.29 500.262H2542.1V548.25C2546.48 545.086 2550.95 542.566 2555.52 540.691C2560.13 538.777 2564.96 537.82 2569.99 537.82C2572.69 537.82 2575.19 538.27 2577.49 539.168C2579.84 540.066 2581.87 541.453 2583.59 543.328C2585.31 545.203 2586.65 547.625 2587.63 550.594C2588.61 553.523 2589.1 557.039 2589.1 561.141V597H2557.28V559.148C2557.28 557.117 2556.83 555.633 2555.93 554.695C2555.07 553.758 2553.65 553.289 2551.65 553.289C2550.76 553.289 2549.86 553.426 2548.96 553.699C2548.1 553.973 2547.26 554.324 2546.44 554.754C2545.62 555.184 2544.84 555.672 2544.1 556.219C2543.35 556.766 2542.69 557.312 2542.1 557.859V597H2510.29V500.262ZM2639.38 521.648C2646.1 519.188 2652.1 516.492 2657.37 513.562C2662.68 510.594 2667.6 507.43 2672.14 504.07L2681.16 515.027C2678.89 516.551 2676.24 518.035 2673.19 519.48C2670.18 520.926 2666.98 522.234 2663.58 523.406C2660.22 524.578 2656.78 525.594 2653.27 526.453C2649.75 527.312 2646.39 527.938 2643.19 528.328L2639.38 521.648ZM2619.17 578.719C2619.17 575.906 2619.79 573.289 2621.04 570.867C2622.29 568.445 2624.09 566.336 2626.43 564.539C2628.78 562.742 2631.61 561.336 2634.93 560.32C2638.25 559.266 2641.96 558.738 2646.06 558.738C2650.16 558.738 2653.99 559.227 2657.55 560.203C2661.14 561.141 2664.15 562.352 2666.57 563.836V563.367C2666.57 560.633 2666.26 558.309 2665.63 556.395C2665.05 554.48 2664.13 552.918 2662.88 551.707C2661.63 550.496 2660.03 549.617 2658.07 549.07C2656.16 548.523 2653.89 548.25 2651.28 548.25C2648.89 548.25 2646.43 548.465 2643.89 548.895C2641.35 549.285 2639.01 549.871 2636.86 550.652L2632.58 542.742C2636.84 540.984 2641.24 539.734 2645.77 538.992C2650.34 538.211 2655.05 537.82 2659.89 537.82C2666.1 537.82 2671.59 538.426 2676.35 539.637C2681.16 540.809 2685.18 542.586 2688.42 544.969C2691.71 547.312 2694.19 550.281 2695.87 553.875C2697.55 557.43 2698.39 561.609 2698.39 566.414V597H2668.68L2666.69 591.375C2665.51 592.273 2664.13 593.133 2662.53 593.953C2660.92 594.773 2659.17 595.496 2657.25 596.121C2655.34 596.746 2653.31 597.234 2651.16 597.586C2649.01 597.938 2646.76 598.113 2644.42 598.113C2640.59 598.113 2637.12 597.625 2633.99 596.648C2630.9 595.633 2628.27 594.266 2626.08 592.547C2623.89 590.828 2622.19 588.797 2620.98 586.453C2619.77 584.07 2619.17 581.492 2619.17 578.719ZM2651.98 577.488C2651.98 579.598 2652.66 581.316 2654.03 582.645C2655.4 583.934 2657.23 584.578 2659.54 584.578C2660.79 584.578 2662.02 584.383 2663.23 583.992C2664.44 583.562 2665.55 582.938 2666.57 582.117V572.215C2664.62 571.043 2662.47 570.457 2660.12 570.457C2657.47 570.457 2655.44 571.121 2654.03 572.449C2652.66 573.738 2651.98 575.418 2651.98 577.488ZM2758.75 548.543H2732.5V538.934H2798.18L2769.82 587.391H2795.9V597.059H2728.16L2758.75 548.543Z" fill="#333333"/>
</svg>
