<svg width="712" height="712" viewBox="0 0 712 712" fill="none" xmlns="http://www.w3.org/2000/svg">
<path d="M687.913 355.585C687.913 539.128 539.128 687.913 355.587 687.913C172.045 687.913 23.2584 539.128 23.2584 355.585C23.2584 172.047 172.045 23.2587 355.587 23.2587C539.128 23.2587 687.913 172.047 687.913 355.585Z" fill="#B92038"/>
<path d="M355.585 46.5147C185.165 46.5147 46.5156 185.165 46.5156 355.587C46.5156 526.007 185.165 664.656 355.585 664.656C526.005 664.656 664.659 526.007 664.659 355.587C664.659 185.165 526.005 46.5147 355.585 46.5147ZM355.585 711.172C159.515 711.172 0 551.659 0 355.587C0 159.515 159.515 6.10352e-05 355.585 6.10352e-05C551.656 6.10352e-05 711.171 159.515 711.171 355.587C711.171 551.659 551.656 711.172 355.585 711.172Z" fill="#333333"/>
<path d="M136.129 494.025L139.767 500.383L192.208 469.788L189.28 464.676L136.129 494.025ZM241.251 420.68L187.356 450.193L193.087 460.211L246.879 430.508L241.251 420.68ZM305.359 385.573L246.096 418.028L251.712 427.84L310.859 395.181L305.359 385.573ZM252.74 429.636L254.816 433.261L313.167 399.219L311.885 396.979L252.74 429.636ZM492.408 257.151C492.612 257.669 492.768 258.205 492.893 258.747C492.78 258.204 492.62 257.669 492.408 257.151ZM110.77 460.832L61.9787 487.405L67.3094 497.392L116.367 470.608L110.77 460.832ZM182.511 452.845L129.253 482.013L135.1 492.228L188.252 462.88L182.511 452.845ZM117.395 472.407L68.2845 499.221L73.9922 509.912L123.381 482.867L117.395 472.407ZM124.41 484.665L74.9683 511.74L80.6126 522.315L130.266 494.896L124.41 484.665ZM81.5891 524.14L85.7345 531.907L134.999 503.165L131.295 496.695L81.5891 524.14ZM447.208 268.665C447.092 268.123 446.929 267.587 446.721 267.068C446.924 267.587 447.077 268.123 447.208 268.665ZM103.638 448.368L55.1141 474.549L61.0027 485.581L109.741 459.033L103.638 448.368ZM636.795 264.404C636.799 262.457 636.595 260.511 636.503 258.585C636.211 256.671 635.789 254.777 635.401 252.907C636.328 260.539 635.463 268.244 632.884 275.279C630.283 282.303 626.136 288.715 620.737 293.843C615.384 299.027 608.797 302.871 601.685 305.236C594.553 307.597 586.892 308.315 579.213 307.949C581.107 308.243 583.017 308.512 584.941 308.748C586.859 309.021 588.796 308.867 590.741 308.944C592.7 309.047 594.611 308.636 596.553 308.428C598.507 308.269 600.392 307.759 602.288 307.264C609.875 305.285 616.941 301.273 622.648 295.833C628.32 290.368 632.661 283.479 634.899 275.947C635.556 274.1 635.767 272.121 636.216 270.225C636.571 268.307 636.603 266.335 636.795 264.404ZM538.413 253.761C538.857 252.183 538.929 250.476 538.587 248.844C538.896 250.148 539.007 251.501 538.913 252.859C539.977 250.484 540.132 247.707 539.107 245.101C537.553 241.169 533.773 238.763 529.78 238.763C528.896 238.763 528.008 238.925 527.128 239.169C528.935 239.312 530.675 239.787 532.195 240.609C534.94 242.048 536.999 244.471 538.096 247.233C537.021 244.431 534.624 242.243 531.887 241.319C529.125 240.388 526.121 240.772 523.832 242.107C522.348 242.961 521.236 244.127 520.411 245.423C519.62 247.625 519.556 250.1 520.477 252.444C522.504 257.581 528.343 260.109 533.461 258.085C535.649 257.223 537.321 255.653 538.413 253.761ZM447.039 273.603C447.481 272.023 447.556 270.313 447.212 268.68C447.52 269.983 447.632 271.344 447.537 272.701L447.596 272.596C448.664 270.143 448.709 267.424 447.728 264.937C446.747 262.448 444.856 260.492 442.405 259.427C441.127 258.871 439.773 258.589 438.421 258.589C437.519 258.589 436.625 258.759 435.747 259.004C437.555 259.147 439.299 259.621 440.819 260.443C443.564 261.881 445.623 264.307 446.721 267.068C445.648 264.264 443.248 262.077 440.509 261.155C437.751 260.223 434.745 260.607 432.456 261.94C430.968 262.8 429.852 263.969 429.025 265.269C428.212 267.549 428.207 270.005 429.105 272.277C430.085 274.765 431.975 276.72 434.427 277.787C436.879 278.853 439.599 278.903 442.087 277.917C444.212 277.081 445.909 275.552 447.039 273.603ZM401.908 282.513C402.973 280.06 403.02 277.34 402.041 274.855V274.852C401.059 272.364 399.169 270.408 396.717 269.344C395.44 268.788 394.087 268.508 392.731 268.508C391.833 268.508 390.94 268.675 390.061 268.921C391.867 269.063 393.611 269.539 395.129 270.36C397.877 271.797 399.935 274.221 401.032 276.985C399.957 274.181 397.561 271.993 394.821 271.072C392.065 270.139 389.059 270.523 386.769 271.857C385.28 272.716 384.167 273.884 383.337 275.184C382.527 277.463 382.52 279.921 383.415 282.193C384.396 284.684 386.289 286.639 388.737 287.705C391.191 288.771 393.915 288.815 396.396 287.836C398.521 286.999 400.224 285.469 401.347 283.521C401.795 281.94 401.867 280.233 401.523 278.601C401.833 279.904 401.944 281.261 401.851 282.62L401.908 282.513ZM566.097 235.507C565.308 237.711 565.241 240.184 566.167 242.528C568.189 247.66 574.016 250.199 579.151 248.167C581.333 247.307 583.009 245.735 584.1 243.844C584.548 242.265 584.619 240.56 584.273 238.928C584.581 240.228 584.695 241.585 584.6 242.941C585.665 240.568 585.82 237.789 584.792 235.184C583.241 231.252 579.46 228.845 575.468 228.845C574.583 228.845 573.697 229.009 572.815 229.253C574.623 229.395 576.363 229.869 577.88 230.693C580.628 232.131 582.687 234.555 583.785 237.317C582.709 234.513 580.315 232.327 577.571 231.404C574.815 230.471 571.808 230.856 569.517 232.187C568.037 233.045 566.925 234.209 566.097 235.507ZM532.679 295.611C530.841 298.108 528.409 300.105 526.219 302.293L519.38 308.621L505.511 321.065C496.219 329.311 486.791 337.403 477.389 345.511C467.965 353.601 458.369 361.483 448.741 369.312C439.371 376.919 429.86 384.36 420.029 391.323C418.324 389.491 416.425 388.105 414.499 386.72C412.257 385.173 409.937 383.776 407.553 382.492C402.785 379.927 397.781 377.829 392.621 376.24C387.459 374.665 382.107 373.685 376.725 373.42C371.351 373.128 365.933 373.636 360.759 375.008C366.011 373.987 371.38 373.745 376.667 374.263C381.959 374.737 387.137 376.031 392.164 377.667C397.177 379.368 402.023 381.561 406.604 384.192C411.096 386.833 415.725 389.872 418.943 393.597L419.675 394.448L420.547 393.848C430.817 386.764 440.697 379.172 450.437 371.417C460.167 363.649 469.607 355.533 479.001 347.379C488.408 339.236 497.579 330.827 506.643 322.301C511.18 318.049 515.669 313.745 520.06 309.335L526.605 302.681C528.711 300.404 530.983 298.223 532.679 295.611ZM592.44 315.844C576.027 316.873 542.184 300.039 542.184 300.039C523.153 311.995 448.58 390.733 417.44 401.151C411.512 394.584 374.168 360.085 321.272 393.428L320.536 392.203L569.74 254.601L572.845 252.888L571.841 251.075L566.973 253.761L319.469 390.427L313.777 380.963L526.108 264.689L534.949 259.844L534.579 259.161L533.96 258.028L528.615 260.953L522.696 264.195L312.709 379.187L306.636 369.084L479.705 274.589L491.227 268.3L490.74 267.407L490.259 266.528C491.255 265.749 492.085 264.795 492.724 263.687C493.169 262.105 493.244 260.396 492.897 258.764C493.208 260.068 493.323 261.427 493.225 262.784L493.284 262.68C494.348 260.227 494.395 257.507 493.416 255.02V255.017C492.435 252.533 490.545 250.576 488.093 249.509C486.815 248.953 485.461 248.675 484.107 248.675C483.207 248.675 482.315 248.841 481.436 249.087C483.241 249.229 484.988 249.704 486.504 250.527C489.253 251.965 491.312 254.389 492.408 257.151C491.333 254.349 488.937 252.16 486.196 251.237C483.44 250.305 480.433 250.691 478.145 252.024C476.656 252.883 475.539 254.052 474.711 255.355C473.9 257.631 473.893 260.088 474.789 262.36C476.729 267.275 482.145 269.757 487.104 268.191L482.271 270.831L476.488 273.987L305.567 367.308L299.873 357.836L434.493 284.517L445.751 278.385L447.469 277.449L446.796 276.217L446.477 275.632L446.063 275.857L437.036 280.776L431.14 283.985L298.807 356.06L292.907 346.247L388.932 294.439L399.924 288.505L401.785 287.501L401.929 287.424L401.897 287.371L401.165 286.009L400.944 285.603L400.228 285.991L391.496 290.7L385.532 293.921L291.839 344.471L285.781 334.401L341.992 304.325L353.8 298.007L353.464 297.384L352.971 296.457C354.065 295.651 354.973 294.631 355.663 293.44C356.107 291.856 356.181 290.149 355.833 288.515C356.144 289.819 356.259 291.179 356.161 292.539L356.223 292.429C357.287 289.979 357.335 287.257 356.355 284.771V284.768C355.372 282.284 353.483 280.327 351.032 279.26C349.749 278.704 348.397 278.425 347.043 278.425C346.144 278.425 345.251 278.592 344.372 278.837C346.179 278.98 347.924 279.455 349.443 280.277C352.191 281.716 354.248 284.14 355.344 286.901C354.269 284.1 351.873 281.911 349.132 280.988C346.375 280.056 343.371 280.441 341.083 281.775C339.595 282.633 338.481 283.8 337.651 285.101C336.837 287.381 336.833 289.839 337.728 292.111C338.712 294.6 340.601 296.556 343.052 297.621C344.937 298.44 346.975 298.644 348.945 298.257L344.663 300.549L339.007 303.575L284.716 332.623L280.336 325.343C280.336 325.343 292.48 319.445 291.741 313.801C290.999 308.159 292.152 282.845 299.48 278.843C301.224 277.892 318.145 273.816 343.049 268.133L340.281 261.243C339.408 261.341 338.547 261.391 337.693 261.391C330.108 261.391 323.716 257.573 322.395 251.676C321.467 247.528 323.26 243.245 326.788 239.943C326.224 240.733 325.732 241.584 325.357 242.504C324.563 244.447 324.275 246.691 324.732 248.823L324.82 249.084C325.353 251.101 326.509 252.912 327.993 254.272C329.553 255.696 331.421 256.648 333.339 257.269C337.219 258.459 341.293 258.277 345.045 257.309C345.356 257.224 345.652 257.096 345.957 257C349.352 255.921 352.519 254.144 354.951 251.604C355.984 250.547 356.881 249.305 357.543 247.961C357.143 250.188 356.039 252.384 354.273 254.383C352.108 256.832 349.123 258.737 345.717 259.956L348.336 266.481L345.775 267.512C358.425 264.633 372.981 261.371 388.576 257.908L385.828 251.06C384.901 251.168 383.98 251.233 383.069 251.233C380.272 251.233 377.587 250.717 375.22 249.695C371.251 247.988 368.627 245.079 367.831 241.512C367.029 237.941 368.164 234.195 371.025 230.959C371.361 230.58 371.769 230.256 372.141 229.904C371.613 230.661 371.147 231.465 370.791 232.34C369.997 234.284 369.711 236.527 370.168 238.659L370.252 238.917C370.785 240.933 371.944 242.748 373.425 244.108C374.987 245.532 376.857 246.484 378.775 247.104C382.652 248.295 386.728 248.113 390.48 247.145C390.788 247.061 391.08 246.933 391.385 246.837C394.78 245.761 397.951 243.981 400.387 241.44C401.417 240.383 402.315 239.14 402.977 237.799C402.576 240.025 401.473 242.219 399.705 244.219C397.563 246.643 394.621 248.54 391.253 249.76L393.929 256.423L392.272 257.089C405.833 254.084 420.113 250.939 434.549 247.775L431.752 240.813C430.663 240.965 429.575 241.069 428.501 241.069C425.708 241.069 423.02 240.553 420.652 239.529C416.685 237.823 414.061 234.915 413.264 231.347C412.463 227.779 413.601 224.029 416.46 220.793C416.795 220.416 417.203 220.092 417.575 219.739C417.048 220.495 416.583 221.301 416.227 222.176C415.433 224.12 415.144 226.361 415.603 228.493L415.685 228.749C416.22 230.767 417.377 232.581 418.863 233.943C420.419 235.367 422.291 236.319 424.208 236.94C428.085 238.131 432.163 237.948 435.915 236.98C436.221 236.897 436.512 236.769 436.816 236.676C440.216 235.599 443.387 233.819 445.82 231.275C446.856 230.217 447.751 228.972 448.415 227.627C448.013 229.856 446.909 232.053 445.141 234.055C443.096 236.367 440.328 238.217 437.152 239.44L439.781 245.987L436.261 247.4C450.621 244.255 465.108 241.096 479.185 238.037L476.267 230.772C475.503 230.845 474.743 230.897 473.999 230.897C466.412 230.897 460.019 227.08 458.7 221.183C457.9 217.615 459.033 213.867 461.893 210.629C462.227 210.251 462.639 209.925 463.011 209.573C462.484 210.329 462.016 211.136 461.664 212.012C460.867 213.956 460.579 216.196 461.037 218.329L461.123 218.591C461.66 220.605 462.815 222.419 464.297 223.777C465.855 225.204 467.725 226.155 469.644 226.776C473.523 227.965 477.596 227.784 481.349 226.817C481.793 226.695 482.221 226.52 482.656 226.372C485.897 225.283 488.919 223.553 491.255 221.111C492.271 220.073 493.155 218.86 493.813 217.545C492.829 222.639 488.192 227.351 481.735 229.575L484.479 236.404L481.86 237.455C496.911 234.187 511.429 231.045 524.763 228.171L521.725 220.609C520.936 220.689 520.151 220.743 519.375 220.743C516.576 220.743 513.891 220.223 511.523 219.203C507.556 217.495 504.933 214.587 504.135 211.019C503.333 207.448 504.469 203.7 507.332 200.465C507.664 200.087 508.073 199.763 508.444 199.411C507.919 200.167 507.451 200.971 507.097 201.847C506.301 203.791 506.016 206.032 506.475 208.165L506.557 208.425C507.093 210.441 508.249 212.253 509.729 213.613C511.288 215.04 513.163 215.991 515.077 216.611C518.957 217.801 523.033 217.62 526.783 216.653C527.225 216.532 527.652 216.357 528.084 216.209C531.331 215.12 534.353 213.389 536.688 210.945C537.703 209.911 538.588 208.699 539.245 207.385C538.261 212.472 533.633 217.176 527.191 219.403L530.013 226.432L526.747 227.744C562.976 219.931 589.944 214.191 593.64 213.472C606.043 211.055 641.688 226.188 643.047 262.26C644.403 298.331 608.855 314.817 592.44 315.844ZM538.584 248.829C538.467 248.287 538.305 247.753 538.096 247.233C538.297 247.751 538.452 248.287 538.584 248.829ZM584.271 238.912C584.156 238.369 583.993 237.836 583.785 237.317C583.987 237.836 584.141 238.369 584.271 238.912ZM355.344 286.901C355.548 287.421 355.703 287.957 355.833 288.5C355.717 287.956 355.555 287.421 355.344 286.901ZM401.519 278.581C401.403 278.037 401.243 277.504 401.032 276.985C401.237 277.504 401.391 278.037 401.519 278.581ZM194.115 462.007L196.977 467.005L250.045 436.048L247.904 432.307L194.115 462.007ZM233.291 406.771L227.763 397.111L173.797 426.504L179.357 436.219L233.291 406.771ZM166.805 414.285L172.768 424.707L226.735 395.316L220.892 385.104L166.805 414.285ZM159.695 401.867L165.775 412.488L219.861 383.307L213.889 372.869L159.695 401.867ZM334.092 255.117C337.384 256.404 341.14 256.639 344.756 256.019C346.901 255.619 349.011 254.887 350.973 253.86C352.299 253.165 353.569 252.357 354.692 251.339C355.88 250.275 356.888 248.951 357.604 247.492C357.769 246.269 357.739 245.039 357.467 243.828C356.669 240.26 354.048 237.355 350.077 235.644C346.331 234.028 341.785 233.685 337.257 234.655C334.699 235.7 332.36 237.209 330.519 239.145C329.679 240.013 328.96 240.993 328.397 242.029C327.329 243.993 326.845 246.169 327.323 248.244C328.011 251.423 330.817 253.888 334.092 255.117ZM96.4042 435.729L48.1689 461.54L54.1365 472.721L102.607 446.568L96.4042 435.729ZM556.955 209.039C559.325 210.057 562.009 210.576 564.809 210.576C565.9 210.576 567.008 210.469 568.121 210.309L571.22 218.017L576.343 215.96L573.516 208.928C579.497 206.588 583.74 202.075 584.679 197.224C584.019 198.536 583.136 199.747 582.124 200.781C579.783 203.227 576.763 204.957 573.511 206.047C573.081 206.193 572.659 206.367 572.221 206.489C568.465 207.455 564.389 207.637 560.513 206.447C558.599 205.827 556.723 204.876 555.167 203.449C553.683 202.089 552.528 200.276 551.992 198.26L551.908 198C551.449 195.868 551.737 193.627 552.531 191.683C552.907 190.76 553.399 189.911 553.96 189.119C550.435 192.421 548.639 196.704 549.568 200.853C550.368 204.423 552.989 207.328 556.955 209.039ZM561.263 204.296C564.555 205.581 568.315 205.816 571.931 205.197C574.161 204.779 576.349 204.007 578.371 202.916C579.615 202.243 580.807 201.477 581.864 200.519C583.043 199.464 584.043 198.152 584.759 196.709C584.937 195.481 584.916 194.24 584.64 193.008C583.047 185.879 574.029 181.803 564.48 183.813C561.903 184.861 559.547 186.373 557.693 188.324C556.852 189.188 556.136 190.169 555.572 191.204C554.503 193.168 554.017 195.347 554.497 197.421C555.184 200.6 557.993 203.067 561.263 204.296ZM379.527 244.953C382.816 246.239 386.575 246.473 390.192 245.855C392.336 245.455 394.447 244.723 396.403 243.696C397.731 243 399.005 242.195 400.125 241.175C401.317 240.112 402.323 238.785 403.039 237.328C403.204 236.104 403.171 234.873 402.901 233.664C402.103 230.096 399.479 227.189 395.512 225.48C391.759 223.86 387.204 223.523 382.684 224.492C380.127 225.537 377.793 227.045 375.953 228.981C375.065 229.897 374.303 230.94 373.727 232.045C372.728 233.959 372.296 236.069 372.756 238.08C373.447 241.257 376.251 243.723 379.527 244.953ZM167.919 427.349L161.944 416.909L108.497 445.745L114.591 456.393L167.919 427.349ZM424.959 234.789C428.252 236.075 432.009 236.309 435.627 235.691C437.772 235.289 439.884 234.557 441.843 233.531C443.168 232.836 444.44 232.028 445.561 231.011C446.751 229.948 447.757 228.62 448.475 227.16C448.639 225.939 448.608 224.709 448.336 223.5C446.74 216.371 437.723 212.288 428.172 214.308C425.595 215.356 423.243 216.867 421.389 218.817C420.499 219.733 419.739 220.775 419.165 221.879C418.165 223.793 417.728 225.905 418.192 227.915C418.88 231.093 421.687 233.559 424.959 234.789ZM515.829 214.46C519.12 215.747 522.881 215.98 526.499 215.361C528.727 214.944 530.916 214.171 532.939 213.079C534.18 212.405 535.373 211.643 536.432 210.684C537.609 209.628 538.608 208.315 539.325 206.872C539.503 205.644 539.481 204.403 539.208 203.171C537.611 196.041 528.611 191.957 519.041 193.98C516.464 195.028 514.111 196.539 512.26 198.488C511.368 199.405 510.607 200.447 510.031 201.551C509.033 203.465 508.599 205.576 509.06 207.585C509.749 210.764 512.556 213.231 515.829 214.46ZM470.395 224.624C473.688 225.911 477.445 226.144 481.06 225.527C483.295 225.109 485.484 224.333 487.505 223.24C488.748 222.571 489.939 221.807 490.999 220.848C492.173 219.791 493.173 218.476 493.889 217.035C494.067 215.809 494.048 214.565 493.773 213.335C492.177 206.204 483.171 202.125 473.607 204.144C471.028 205.192 468.676 206.703 466.825 208.652C465.935 209.569 465.173 210.609 464.601 211.713C463.601 213.628 463.163 215.739 463.625 217.751C464.313 220.929 467.121 223.393 470.395 224.624ZM101.275 433.125L107.468 443.944L160.915 415.111L154.827 404.471L101.275 433.125ZM232.612 394.471L238.139 404.123L297.444 371.741L291.955 362.149L232.612 394.471ZM304.331 383.776L298.472 373.541L239.167 405.92L245.065 416.228L304.331 383.776ZM153.797 402.673L149.357 394.915L95.9146 423.759L100.247 431.327L153.797 402.673ZM218.76 370.263L224.723 380.681L284.199 348.593L278.349 338.379L218.76 370.263ZM212.861 371.072L208.301 363.103L154.219 392.291L158.667 400.068L212.861 371.072ZM225.752 382.48L231.585 392.671L290.927 360.352L285.225 350.391L225.752 382.48ZM91.0553 426.383L43.1902 452.217L47.1949 459.715L95.3771 433.935L91.0553 426.383ZM277.323 336.58L272.632 328.381L213.16 360.48L217.731 368.465L277.323 336.58ZM240.223 418.884L234.32 408.567L180.384 438.015L186.327 448.396L240.223 418.884ZM174.509 438.864L168.947 429.145L145.16 442.1C147.768 441.684 150.408 443.107 151.416 445.667C152.581 448.621 151.129 451.96 148.173 453.125C145.219 454.293 141.877 452.84 140.712 449.884C139.881 447.777 140.399 445.487 141.825 443.916L115.619 458.189L121.214 467.961L174.509 438.864ZM128.224 480.213L122.242 469.76L175.537 440.663L181.483 451.048L128.224 480.213Z" fill="#333333"/>
<path d="M636.5 258.585C636.211 256.671 635.789 254.777 635.401 252.907C636.328 260.539 635.463 268.244 632.881 275.279C630.28 282.303 626.137 288.715 620.735 293.843C615.384 299.027 608.795 302.871 601.685 305.236C594.552 307.597 586.892 308.315 579.213 307.949C581.109 308.243 583.019 308.512 584.941 308.748C586.857 309.021 588.799 308.867 590.741 308.944C592.699 309.047 594.611 308.636 596.551 308.428C598.508 308.269 600.392 307.759 602.288 307.264C609.873 305.285 616.941 301.273 622.647 295.833C628.32 290.368 632.66 283.479 634.896 275.947C635.556 274.1 635.769 272.121 636.219 270.225C636.571 268.307 636.604 266.335 636.795 264.404C636.799 262.457 636.593 260.511 636.5 258.585ZM526.219 302.293L519.38 308.621L505.511 321.065C496.219 329.311 486.793 337.403 477.389 345.511C467.965 353.601 458.369 361.483 448.739 369.312C439.371 376.919 429.86 384.36 420.029 391.323C418.323 389.491 416.428 388.105 414.5 386.72C412.259 385.173 409.935 383.775 407.552 382.492C402.787 379.927 397.783 377.829 392.623 376.24C387.456 374.665 382.107 373.685 376.725 373.42C371.348 373.128 365.933 373.636 360.76 375.008C366.011 373.989 371.381 373.745 376.665 374.263C381.959 374.737 387.136 376.031 392.165 377.667C397.179 379.368 402.024 381.561 406.604 384.192C411.096 386.833 415.727 389.872 418.941 393.597L419.675 394.448L420.545 393.849C430.82 386.764 440.697 379.172 450.437 371.417C460.167 363.649 469.607 355.533 479.001 347.379C488.411 339.236 497.579 330.827 506.643 322.301C511.18 318.049 515.669 313.745 520.06 309.335L526.605 302.681C528.711 300.404 530.984 298.223 532.68 295.611C530.841 298.108 528.407 300.105 526.219 302.293ZM246.877 430.508L241.251 420.68L187.356 450.193L193.087 460.211L246.877 430.508ZM188.253 462.88L182.511 452.845L129.253 482.011L135.101 492.228L188.253 462.88ZM128.224 480.213L181.483 451.048L175.537 440.663L122.242 469.76L128.224 480.213ZM121.214 467.961L174.508 438.864L168.947 429.145L145.16 442.1C147.769 441.684 150.408 443.107 151.417 445.667C152.581 448.621 151.129 451.96 148.173 453.125C145.217 454.293 141.876 452.84 140.712 449.884C139.881 447.777 140.399 445.487 141.825 443.916L115.62 458.189L121.214 467.961ZM114.591 456.393L167.919 427.349L161.944 416.909L108.497 445.745L114.591 456.393ZM107.468 443.944L160.915 415.111L154.827 404.471L101.275 433.125L107.468 443.944ZM159.696 401.865L165.776 412.488L219.863 383.307L213.889 372.869L159.696 401.865ZM220.892 385.104L166.805 414.285L172.768 424.707L226.735 395.316L220.892 385.104ZM227.764 397.111L173.797 426.503L179.357 436.219L233.291 406.771L227.764 397.111ZM234.32 408.567L180.384 438.013L186.327 448.396L240.221 418.881L234.32 408.567ZM571.84 251.075L572.843 252.888L569.74 254.601L320.536 392.203L311.885 396.977L252.74 429.636L254.815 433.261L250.044 436.048L247.904 432.307L194.116 462.007L196.977 467.005L192.208 469.788L189.28 464.676L136.128 494.025L139.767 500.383L134.999 503.165L131.295 496.695L81.588 524.14L71.2156 529.868L70.2156 528.056L80.6125 522.315L130.266 494.896L124.41 484.665L74.9677 511.74L66.0084 516.647L65.0125 514.829L73.9921 509.912L123.381 482.867L117.396 472.407L68.2844 499.22L60.7568 503.332L59.764 501.512L67.3084 497.392L116.367 470.608L110.769 460.833L61.9786 487.405L55.8026 490.767L54.8145 488.951L61.0021 485.581L109.741 459.033L103.637 448.368L55.114 474.549L50.4068 477.087L49.4224 475.265L54.138 472.721L102.608 446.568L96.4046 435.729L48.1697 461.54L44.9531 463.261L43.9771 461.435L47.1948 459.715L95.377 433.932L91.0541 426.383L95.9161 423.759L100.247 431.327L153.796 402.673L149.357 394.915L154.219 392.291L158.667 400.068L212.861 371.071L208.301 363.103L213.161 360.48L217.731 368.465L277.323 336.58L284.716 332.623L339.007 303.575L344.663 300.549L348.945 298.257C346.976 298.644 344.936 298.44 343.053 297.62C340.601 296.556 338.712 294.6 337.729 292.111C336.833 289.839 336.837 287.38 337.651 285.101C338.481 283.8 339.595 282.633 341.081 281.775C343.371 280.441 346.375 280.056 349.133 280.988C351.873 281.911 354.269 284.1 355.344 286.901C355.555 287.42 355.717 287.956 355.833 288.5C355.703 287.957 355.548 287.42 355.344 286.901C354.248 284.14 352.191 281.716 349.444 280.277C347.924 279.455 346.179 278.98 344.372 278.837C345.251 278.592 346.144 278.425 347.045 278.425C348.397 278.425 349.751 278.704 351.032 279.26C353.481 280.327 355.375 282.284 356.355 284.768V284.771C357.335 287.257 357.288 289.979 356.223 292.429L356.161 292.539C356.256 291.179 356.144 289.819 355.835 288.515C356.18 290.149 356.107 291.857 355.663 293.44C354.973 294.631 354.065 295.651 352.971 296.457L353.464 297.384L353.8 298.007L341.992 304.325L285.781 334.401L278.349 338.379L218.76 370.263L224.723 380.681L284.199 348.593L291.837 344.471L385.529 293.921L391.496 290.7L400.227 285.991L400.947 285.603L401.167 286.009L401.897 287.371L401.927 287.424L401.788 287.501L399.923 288.505L388.933 294.439L292.907 346.247L285.227 350.391L225.751 382.48L231.585 392.671L290.928 360.352L298.807 356.06L431.14 283.985L437.035 280.776L446.065 275.857L446.477 275.632L446.796 276.217L447.469 277.448L445.753 278.385L434.492 284.517L299.873 357.836L291.955 362.149L232.615 394.471L238.139 404.123L297.444 371.741L305.567 367.308L476.488 273.987L482.271 270.829L487.104 268.191C482.144 269.757 476.729 267.275 474.789 262.36C473.893 260.088 473.9 257.631 474.711 255.352C475.541 254.052 476.656 252.883 478.143 252.024C480.433 250.691 483.44 250.305 486.196 251.236C488.94 252.157 491.335 254.349 492.411 257.151C492.617 257.669 492.779 258.204 492.893 258.747C492.767 258.205 492.611 257.669 492.411 257.151C491.309 254.389 489.255 251.965 486.504 250.527C484.985 249.704 483.244 249.229 481.436 249.087C482.317 248.841 483.207 248.675 484.107 248.675C485.46 248.675 486.815 248.953 488.095 249.509C490.544 250.576 492.435 252.533 493.416 255.017V255.02C494.395 257.507 494.348 260.227 493.284 262.68L493.224 262.784C493.323 261.427 493.208 260.068 492.897 258.764C493.244 260.396 493.172 262.105 492.724 263.687C492.085 264.795 491.256 265.749 490.26 266.528L490.74 267.407L491.224 268.3L479.708 274.589L306.637 369.084L298.473 373.541L239.167 405.92L245.065 416.228L304.331 383.776L312.711 379.187L522.696 264.195L528.615 260.953L533.957 258.028L534.577 259.161L534.949 259.844L526.105 264.689L313.777 380.963L305.359 385.573L246.096 418.028L251.712 427.84L310.857 395.181L319.469 390.427L566.973 253.761L571.84 251.075ZM551.993 198.26C552.528 200.276 553.684 202.089 555.167 203.449C556.723 204.876 558.596 205.827 560.512 206.447C564.391 207.637 568.468 207.455 572.22 206.489C572.659 206.367 573.081 206.193 573.511 206.047C576.761 204.957 579.785 203.227 582.124 200.781C583.136 199.747 584.02 198.533 584.679 197.224C585.736 195.124 586.215 192.764 585.684 190.444C586.152 192.608 585.717 194.78 584.759 196.709C584.043 198.152 583.043 199.464 581.867 200.519C580.807 201.477 579.613 202.243 578.371 202.916C576.349 204.007 574.161 204.779 571.933 205.197C568.317 205.816 564.555 205.581 561.263 204.296C557.993 203.067 555.184 200.6 554.497 197.421C554.017 195.347 554.503 193.168 555.572 191.204C556.135 190.169 556.855 189.188 557.696 188.324C559.549 186.373 561.901 184.861 564.48 183.813C565.287 183.485 566.112 183.197 566.956 182.964C570.499 182.04 574.345 181.865 577.939 182.96C581.479 184.016 584.811 186.675 585.684 190.444C584.86 186.672 581.592 183.92 578.059 182.609C574.483 181.228 570.493 181 566.667 181.663C562.86 182.387 559.088 183.953 556.089 186.688C555.316 187.417 554.592 188.229 553.96 189.119C553.399 189.911 552.904 190.759 552.533 191.683C551.737 193.627 551.449 195.868 551.907 198L551.993 198.26ZM506.556 208.425C507.092 210.441 508.248 212.253 509.731 213.613C511.288 215.04 513.163 215.991 515.077 216.611C518.957 217.801 523.032 217.62 526.783 216.653C527.225 216.532 527.649 216.357 528.084 216.209C531.331 215.12 534.353 213.389 536.688 210.945C537.703 209.911 538.587 208.696 539.245 207.385C540.303 205.284 540.779 202.927 540.251 200.609C540.716 202.773 540.283 204.943 539.325 206.872C538.611 208.315 537.609 209.628 536.432 210.684C535.375 211.643 534.18 212.405 532.939 213.079C530.916 214.171 528.724 214.944 526.497 215.361C522.879 215.98 519.121 215.747 515.829 214.46C512.556 213.231 509.749 210.764 509.06 207.585C508.599 205.576 509.035 203.465 510.033 201.551C510.607 200.447 511.368 199.405 512.26 198.488C514.112 196.539 516.464 195.028 519.043 193.98C519.848 193.651 520.677 193.363 521.521 193.128C525.064 192.204 528.909 192.029 532.501 193.124C536.043 194.181 539.379 196.84 540.251 200.609C539.424 196.836 536.159 194.085 532.624 192.773C529.048 191.393 525.057 191.164 521.229 191.827C517.425 192.552 513.655 194.117 510.657 196.853C509.843 197.616 509.095 198.473 508.444 199.411C507.919 200.167 507.451 200.971 507.096 201.847C506.301 203.791 506.015 206.032 506.473 208.165L506.556 208.425ZM461.121 218.589C461.657 220.607 462.815 222.419 464.297 223.777C465.855 225.204 467.725 226.155 469.644 226.776C473.521 227.965 477.596 227.784 481.349 226.817C481.793 226.695 482.22 226.52 482.656 226.372C485.897 225.283 488.917 223.553 491.256 221.111C492.271 220.073 493.152 218.86 493.813 217.545C494.871 215.445 495.344 213.088 494.815 210.773C495.281 212.936 494.847 215.105 493.889 217.035C493.175 218.476 492.176 219.791 490.996 220.848C489.941 221.807 488.748 222.571 487.505 223.24C485.485 224.333 483.292 225.109 481.06 225.527C477.444 226.144 473.688 225.911 470.396 224.624C467.121 223.393 464.313 220.929 463.625 217.751C463.163 215.739 463.601 213.628 464.601 211.713C465.173 210.609 465.935 209.569 466.824 208.652C468.675 206.703 471.028 205.192 473.605 204.144C474.413 203.815 475.243 203.527 476.089 203.292C479.629 202.368 483.477 202.195 487.065 203.289C490.608 204.345 493.943 207.003 494.815 210.773C493.989 207 490.723 204.249 487.188 202.939C483.612 201.557 479.624 201.328 475.795 201.992C471.988 202.716 468.221 204.281 465.221 207.017C464.409 207.777 463.663 208.636 463.011 209.573C462.484 210.329 462.016 211.136 461.661 212.012C460.867 213.956 460.579 216.196 461.037 218.329L461.121 218.589ZM415.685 228.749C416.22 230.767 417.377 232.581 418.861 233.943C420.42 235.367 422.291 236.319 424.208 236.94C428.085 238.131 432.163 237.948 435.915 236.98C436.221 236.897 436.515 236.769 436.817 236.676C440.217 235.599 443.387 233.819 445.823 231.275C446.856 230.216 447.752 228.972 448.415 227.627C449.444 225.548 449.905 223.224 449.38 220.939C449.843 223.087 449.417 225.24 448.475 227.16C447.76 228.62 446.753 229.945 445.561 231.011C444.441 232.028 443.168 232.836 441.843 233.531C439.881 234.557 437.772 235.289 435.627 235.691C432.009 236.309 428.249 236.075 424.96 234.789C421.687 233.559 418.881 231.093 418.193 227.915C417.729 225.905 418.164 223.793 419.164 221.879C419.739 220.775 420.5 219.733 421.389 218.817C423.24 216.867 425.595 215.356 428.171 214.308C428.979 213.979 429.809 213.692 430.653 213.457C434.196 212.533 438.043 212.359 441.632 213.453C445.172 214.509 448.507 217.167 449.38 220.939C448.555 217.165 445.289 214.415 441.756 213.103C438.176 211.723 434.188 211.493 430.361 212.156C426.555 212.88 422.784 214.447 419.785 217.183C418.973 217.944 418.225 218.803 417.576 219.739C417.048 220.495 416.583 221.301 416.227 222.176C415.433 224.12 415.144 226.361 415.603 228.493L415.685 228.749ZM370.252 238.915C370.785 240.933 371.944 242.748 373.425 244.108C374.985 245.532 376.857 246.484 378.776 247.104C382.652 248.295 386.728 248.113 390.481 247.145C390.789 247.061 391.081 246.933 391.384 246.837C394.783 245.761 397.951 243.981 400.384 241.44C401.417 240.383 402.313 239.14 402.977 237.799C404.005 235.719 404.469 233.391 403.947 231.101C404.411 233.252 403.983 235.408 403.039 237.328C402.324 238.785 401.315 240.112 400.125 241.175C399.005 242.195 397.731 243 396.405 243.696C394.445 244.723 392.336 245.455 390.192 245.855C386.575 246.475 382.816 246.239 379.524 244.953C376.251 243.723 373.447 241.257 372.757 238.08C372.296 236.069 372.728 233.959 373.727 232.045C374.304 230.94 375.065 229.897 375.953 228.981C377.793 227.045 380.127 225.537 382.681 224.492C383.507 224.153 384.355 223.861 385.219 223.621C388.76 222.697 392.605 222.524 396.197 223.617C399.737 224.672 403.072 227.332 403.947 231.101C403.119 227.328 399.855 224.579 396.323 223.267C392.741 221.887 388.755 221.657 384.929 222.32C381.119 223.045 377.348 224.612 374.351 227.347C373.54 228.111 372.789 228.967 372.141 229.904C371.615 230.661 371.148 231.465 370.791 232.34C370 234.284 369.711 236.527 370.168 238.659L370.252 238.915ZM324.82 249.084C325.353 251.101 326.509 252.912 327.992 254.272C329.553 255.696 331.421 256.648 333.341 257.269C337.219 258.459 341.293 258.277 345.045 257.309C345.356 257.224 345.652 257.096 345.957 257C349.353 255.921 352.519 254.144 354.951 251.604C355.984 250.547 356.879 249.305 357.543 247.961C358.571 245.881 359.035 243.556 358.512 241.265C358.976 243.416 358.548 245.572 357.607 247.492C356.887 248.951 355.88 250.275 354.692 251.339C353.569 252.357 352.299 253.165 350.975 253.86C349.011 254.887 346.904 255.619 344.756 256.019C341.14 256.639 337.383 256.404 334.092 255.117C330.817 253.888 328.011 251.423 327.323 248.244C326.843 246.169 327.329 243.993 328.397 242.029C328.96 240.993 329.679 240.013 330.519 239.145C332.36 237.209 334.697 235.7 337.257 234.655C338.079 234.316 338.923 234.024 339.783 233.785C343.324 232.861 347.171 232.688 350.764 233.781C354.304 234.836 357.636 237.496 358.512 241.265C357.685 237.492 354.417 234.743 350.888 233.431C347.308 232.051 343.319 231.821 339.492 232.485C335.684 233.209 331.915 234.777 328.915 237.511C328.14 238.241 327.42 239.055 326.788 239.943C326.224 240.733 325.733 241.584 325.357 242.504C324.564 244.447 324.275 246.691 324.732 248.823L324.82 249.084ZM584.103 243.844C584.547 242.265 584.617 240.56 584.273 238.928C584.581 240.228 584.693 241.585 584.6 242.941C585.665 240.568 585.82 237.789 584.795 235.184C583.239 231.252 579.459 228.845 575.465 228.845C574.583 228.845 573.697 229.009 572.815 229.253C574.623 229.395 576.363 229.869 577.88 230.693C580.629 232.131 582.685 234.555 583.785 237.317C583.987 237.836 584.141 238.369 584.271 238.912C584.155 238.369 583.993 237.836 583.785 237.317C582.711 234.513 580.312 232.327 577.571 231.404C574.815 230.471 571.808 230.856 569.517 232.187C568.037 233.045 566.925 234.209 566.097 235.507C565.308 237.711 565.243 240.184 566.167 242.528C568.189 247.66 574.019 250.199 579.149 248.167C581.335 247.307 583.008 245.735 584.103 243.844ZM539.107 245.101C537.553 241.169 533.773 238.763 529.78 238.763C528.897 238.763 528.008 238.925 527.129 239.169C528.935 239.312 530.677 239.787 532.193 240.609C534.94 242.048 536.999 244.471 538.096 247.233C538.299 247.751 538.455 248.287 538.583 248.829C538.467 248.287 538.305 247.753 538.096 247.233C537.021 244.431 534.624 242.243 531.885 241.319C529.127 240.388 526.123 240.772 523.832 242.107C522.349 242.961 521.236 244.127 520.408 245.42C519.62 247.625 519.556 250.1 520.477 252.444C522.507 257.581 528.34 260.109 533.461 258.085C535.647 257.223 537.321 255.653 538.413 253.761C538.857 252.183 538.929 250.476 538.584 248.844C538.896 250.148 539.007 251.501 538.915 252.859C539.977 250.484 540.132 247.707 539.107 245.101ZM447.597 272.596C448.664 270.143 448.709 267.424 447.727 264.937C446.749 262.448 444.856 260.492 442.405 259.427C441.128 258.871 439.773 258.589 438.42 258.589C437.521 258.589 436.625 258.759 435.749 259.004C437.555 259.147 439.299 259.621 440.82 260.443C443.564 261.881 445.623 264.307 446.721 267.068C446.924 267.587 447.077 268.123 447.209 268.665C447.092 268.123 446.929 267.587 446.721 267.068C445.647 264.264 443.248 262.077 440.511 261.155C437.752 260.223 434.748 260.607 432.456 261.94C430.969 262.8 429.852 263.969 429.024 265.269C428.212 267.549 428.207 270.005 429.104 272.277C430.085 274.765 431.976 276.72 434.429 277.787C436.877 278.853 439.6 278.903 442.087 277.917C444.215 277.081 445.912 275.552 447.036 273.603C447.481 272.021 447.556 270.313 447.213 268.68C447.521 269.983 447.632 271.344 447.537 272.701L447.597 272.596ZM401.849 282.62C401.945 281.261 401.833 279.904 401.523 278.601C401.869 280.233 401.796 281.94 401.347 283.521C400.223 285.469 398.521 286.999 396.397 287.836C393.913 288.815 391.191 288.771 388.737 287.705C386.287 286.639 384.397 284.684 383.415 282.193C382.517 279.921 382.525 277.463 383.337 275.184C384.167 273.884 385.28 272.716 386.769 271.857C389.057 270.523 392.063 270.139 394.821 271.072C397.563 271.995 399.957 274.181 401.032 276.985C401.244 277.504 401.405 278.037 401.519 278.581C401.389 278.037 401.235 277.504 401.032 276.985C399.937 274.221 397.877 271.797 395.129 270.36C393.611 269.539 391.867 269.063 390.06 268.921C390.941 268.675 391.833 268.508 392.731 268.508C394.088 268.508 395.44 268.788 396.717 269.344C399.171 270.408 401.059 272.364 402.041 274.852V274.855C403.021 277.34 402.973 280.06 401.908 282.513L401.849 282.62Z" fill="white"/>
</svg>
